# Blender v2.93.5 OBJ File: ''
# www.blender.org
mtllib Grass.mtl
o Grass_Plane.004
v 0.338620 -0.010103 -0.034737
v 0.375495 -0.010103 -0.040649
v 0.376889 0.068158 -0.040649
v 0.341372 0.068381 -0.034737
v 0.305856 0.068604 -0.040650
v 0.301745 -0.010103 -0.040650
v 0.324934 0.203650 -0.034737
v 0.298542 0.223285 -0.040650
v 0.321501 0.161759 -0.040650
v 0.348961 0.155736 -0.034737
v 0.369726 0.159084 -0.040650
v 0.324546 0.221502 -0.040650
v 0.297162 0.242526 -0.045248
v 0.349630 0.111956 -0.034737
v 0.381069 0.111065 -0.040650
v 0.318191 0.112848 -0.040650
v -0.083135 -0.010103 -0.034737
v -0.046260 -0.010103 -0.040650
v -0.052167 0.040732 -0.040650
v -0.087683 0.040955 -0.034737
v -0.123200 0.041178 -0.040650
v -0.120010 -0.010103 -0.040650
v -0.121741 0.188785 -0.034737
v -0.135576 0.213694 -0.040650
v -0.139849 0.137879 -0.040650
v -0.115529 0.130537 -0.034737
v -0.091624 0.135204 -0.040650
v -0.109572 0.211911 -0.040650
v -0.123468 0.238599 -0.045248
v -0.101329 0.083886 -0.034737
v -0.069889 0.082995 -0.040650
v -0.132768 0.084778 -0.040650
v 0.117100 -0.010103 0.082036
v 0.165766 -0.010103 0.076124
v 0.173522 0.079112 0.076124
v 0.125216 0.077048 0.082036
v 0.076911 0.074983 0.076124
v 0.068433 -0.010103 0.076124
v 0.149567 0.132695 0.082036
v 0.102345 0.124436 0.076124
v 0.196789 0.140954 0.076124
v 0.209650 0.200392 0.076124
v 0.166463 0.184715 0.082036
v 0.123275 0.169038 0.076124
v 0.152213 0.235643 0.082036
v 0.118242 0.214231 0.076124
v 0.186184 0.257055 0.076124
v 0.142685 0.316229 0.076124
v 0.122932 0.288706 0.082036
v 0.097993 0.272640 0.076124
v 0.094732 0.347133 0.082036
v 0.073278 0.356896 0.076124
v 0.095443 0.383202 0.076124
v 0.073220 0.394662 0.071525
v -0.221142 -0.010103 0.072459
v -0.184267 -0.010103 0.066547
v -0.198774 0.152891 0.066547
v -0.234039 0.154192 0.072459
v -0.269304 0.155492 0.066547
v -0.258017 -0.010103 0.066547
v -0.304276 0.453390 0.072459
v -0.308756 0.482009 0.066547
v -0.327138 0.389984 0.066547
v -0.306412 0.376325 0.072459
v -0.281928 0.374375 0.066547
v -0.284762 0.471603 0.066547
v -0.288686 0.501958 0.061948
v -0.272731 0.270023 0.072459
v -0.242297 0.264820 0.066547
v -0.303166 0.275225 0.066547
v 0.338620 -0.010103 -0.082036
v 0.341372 0.068381 -0.082036
v 0.376889 0.068158 -0.076123
v 0.375495 -0.010103 -0.076123
v 0.301745 -0.010103 -0.076123
v 0.305856 0.068604 -0.076123
v 0.324934 0.203650 -0.082036
v 0.348961 0.155736 -0.082036
v 0.321501 0.161759 -0.076123
v 0.298542 0.223285 -0.076123
v 0.297162 0.242526 -0.071525
v 0.324546 0.221502 -0.076123
v 0.369726 0.159084 -0.076123
v 0.349630 0.111956 -0.082036
v 0.381069 0.111065 -0.076123
v 0.318191 0.112848 -0.076123
v -0.083135 -0.010103 -0.082036
v -0.087683 0.040955 -0.082036
v -0.052167 0.040732 -0.076124
v -0.046260 -0.010103 -0.076124
v -0.120010 -0.010103 -0.076124
v -0.123200 0.041178 -0.076124
v -0.121741 0.188785 -0.082036
v -0.115529 0.130537 -0.082036
v -0.139849 0.137879 -0.076124
v -0.135576 0.213694 -0.076124
v -0.123468 0.238599 -0.071525
v -0.109572 0.211911 -0.076124
v -0.091624 0.135204 -0.076124
v -0.101329 0.083886 -0.082036
v -0.069889 0.082995 -0.076124
v -0.132768 0.084778 -0.076124
v 0.117100 -0.010103 0.034738
v 0.125216 0.077048 0.034738
v 0.173522 0.079112 0.040651
v 0.165766 -0.010103 0.040650
v 0.068433 -0.010103 0.040650
v 0.076911 0.074983 0.040650
v 0.149567 0.132695 0.034738
v 0.102345 0.124436 0.040650
v 0.123275 0.169038 0.040650
v 0.166463 0.184715 0.034737
v 0.209650 0.200392 0.040650
v 0.196789 0.140954 0.040650
v 0.152213 0.235643 0.034737
v 0.118242 0.214231 0.040650
v 0.097993 0.272640 0.040650
v 0.122932 0.288706 0.034737
v 0.142685 0.316229 0.040650
v 0.186184 0.257055 0.040650
v 0.094732 0.347133 0.034737
v 0.073278 0.356896 0.040650
v 0.073220 0.394662 0.045248
v 0.095443 0.383202 0.040650
v -0.221142 -0.010103 0.025161
v -0.234039 0.154192 0.025161
v -0.198774 0.152891 0.031073
v -0.184267 -0.010103 0.031073
v -0.258017 -0.010103 0.031073
v -0.269304 0.155492 0.031074
v -0.304276 0.453390 0.025161
v -0.306412 0.376325 0.025161
v -0.327138 0.389984 0.031073
v -0.308756 0.482009 0.031073
v -0.288686 0.501958 0.035672
v -0.284762 0.471603 0.031073
v -0.281928 0.374375 0.031073
v -0.272731 0.270023 0.025161
v -0.242297 0.264820 0.031073
v -0.303166 0.275225 0.031073
v 0.387787 -0.010103 -0.058386
v 0.388727 0.068083 -0.058386
v 0.289453 -0.010103 -0.058386
v 0.294017 0.068678 -0.058386
v 0.307711 0.113145 -0.058386
v 0.312348 0.163767 -0.058386
v 0.391549 0.110767 -0.058386
v 0.376647 0.160200 -0.058386
v 0.324417 0.227453 -0.058386
v 0.280301 0.266128 -0.058387
v 0.289745 0.229830 -0.058386
v -0.033968 -0.010103 -0.058387
v -0.040328 0.040658 -0.058387
v -0.132302 -0.010103 -0.058387
v -0.135038 0.041252 -0.058387
v -0.143248 0.085075 -0.058387
v -0.147956 0.140326 -0.058387
v -0.059409 0.082697 -0.058387
v -0.083656 0.136760 -0.058387
v -0.105515 0.219619 -0.058387
v -0.124516 0.268843 -0.058387
v -0.140187 0.221997 -0.058387
v 0.181988 -0.010103 0.058387
v 0.189624 0.079801 0.058387
v 0.052211 -0.010103 0.058387
v 0.060809 0.074295 0.058387
v 0.086605 0.121683 0.058387
v 0.108880 0.163813 0.058387
v 0.212530 0.143707 0.058387
v 0.224045 0.205617 0.058387
v 0.106918 0.207093 0.058387
v 0.089680 0.267285 0.058387
v 0.197508 0.264192 0.058387
v 0.149269 0.325404 0.058387
v 0.095680 0.395225 0.058387
v 0.060159 0.423519 0.058387
v 0.066126 0.360150 0.058387
v -0.171975 -0.010103 0.048810
v -0.187019 0.152457 0.048810
v -0.270309 -0.010103 0.048810
v -0.281059 0.155926 0.048810
v -0.313311 0.276960 0.048810
v -0.334046 0.394537 0.048810
v -0.232152 0.263085 0.048810
v -0.273766 0.373725 0.048810
v -0.278257 0.477675 0.048810
v -0.279221 0.531446 0.048810
v -0.310250 0.491549 0.048810
vn 0.1611 -0.0043 0.9869
vn 0.1612 -0.0042 0.9869
vn 0.1612 -0.0043 0.9869
vn -0.1612 0.0070 0.9869
vn -0.2644 -0.1135 0.9577
vn 0.3244 0.2035 0.9238
vn 0.0187 0.2734 0.9617
vn 0.1735 -0.0249 0.9845
vn 0.2195 0.0287 0.9752
vn 0.2196 0.0287 0.9752
vn -0.1962 0.0056 0.9805
vn -0.1732 0.0406 0.9841
vn -0.1731 0.0406 0.9841
vn 0.1612 0.0166 0.9868
vn 0.1613 0.0165 0.9868
vn -0.1614 -0.0121 0.9868
vn -0.1612 -0.0122 0.9868
vn -0.2994 -0.0043 0.9541
vn 0.2765 0.0495 0.9597
vn 0.0142 0.2069 0.9783
vn 0.0142 0.2068 0.9783
vn 0.1746 0.0643 0.9825
vn 0.2036 0.0740 0.9763
vn -0.2137 -0.0456 0.9758
vn -0.1745 -0.0468 0.9835
vn 0.1210 -0.0110 0.9926
vn 0.1212 -0.0109 0.9926
vn -0.1210 0.0118 0.9926
vn -0.1215 0.0116 0.9925
vn -0.1213 0.0117 0.9926
vn -0.1293 0.0611 0.9897
vn -0.1291 0.0612 0.9897
vn -0.1291 0.0611 0.9897
vn 0.1282 -0.0520 0.9904
vn 0.1393 -0.0372 0.9896
vn 0.1392 -0.0372 0.9896
vn -0.1440 0.0565 0.9880
vn -0.1442 0.0564 0.9879
vn -0.1441 0.0564 0.9879
vn -0.1384 -0.0278 0.9900
vn -0.1383 -0.0277 0.9900
vn 0.1299 0.0456 0.9905
vn 0.1299 0.0455 0.9905
vn 0.1365 0.0885 0.9867
vn -0.1542 -0.0685 0.9857
vn -0.2349 -0.0871 0.9681
vn 0.1960 0.1179 0.9735
vn -0.1666 0.1404 0.9760
vn -0.1667 0.1404 0.9760
vn 0.1619 0.0136 0.9867
vn 0.1620 0.0136 0.9867
vn -0.1620 -0.0119 0.9867
vn -0.1619 -0.0119 0.9867
vn -0.3628 0.0440 0.9308
vn 0.2592 0.0010 0.9658
vn 0.0807 0.1860 0.9792
vn 0.1831 0.0661 0.9809
vn 0.2191 0.0744 0.9728
vn 0.2191 0.0744 0.9729
vn 0.2192 0.0744 0.9728
vn -0.2472 -0.0645 0.9668
vn -0.1822 -0.0561 0.9817
vn 0.1613 -0.0042 -0.9869
vn 0.1612 -0.0043 -0.9869
vn -0.1611 0.0071 -0.9869
vn -0.1612 0.0070 -0.9869
vn -0.2644 -0.1135 -0.9577
vn 0.0187 0.2734 -0.9617
vn 0.3244 0.2035 -0.9238
vn 0.1735 -0.0249 -0.9845
vn 0.1735 -0.0250 -0.9845
vn -0.1731 0.0406 -0.9841
vn -0.1962 0.0056 -0.9805
vn 0.2195 0.0287 -0.9752
vn 0.2196 0.0287 -0.9752
vn 0.1612 0.0166 -0.9868
vn 0.1612 0.0165 -0.9868
vn -0.1610 -0.0123 -0.9869
vn -0.1613 -0.0121 -0.9868
vn -0.1612 -0.0122 -0.9868
vn -0.2993 -0.0043 -0.9541
vn -0.2994 -0.0043 -0.9541
vn 0.0142 0.2069 -0.9783
vn 0.0142 0.2070 -0.9782
vn 0.2765 0.0495 -0.9598
vn 0.2765 0.0495 -0.9597
vn 0.1746 0.0643 -0.9825
vn -0.1745 -0.0468 -0.9835
vn -0.1744 -0.0468 -0.9836
vn -0.1745 -0.0468 -0.9836
vn -0.2137 -0.0456 -0.9758
vn 0.2035 0.0740 -0.9763
vn 0.1215 -0.0108 -0.9925
vn 0.1210 -0.0110 -0.9926
vn -0.1213 0.0117 -0.9925
vn -0.1215 0.0116 -0.9925
vn -0.1212 0.0117 -0.9926
vn -0.1291 0.0612 -0.9897
vn -0.1292 0.0611 -0.9897
vn -0.1442 0.0564 -0.9879
vn 0.1393 -0.0372 -0.9895
vn 0.1392 -0.0372 -0.9896
vn 0.1393 -0.0372 -0.9896
vn 0.1283 -0.0519 -0.9904
vn 0.1283 -0.0520 -0.9904
vn 0.1282 -0.0520 -0.9904
vn -0.1383 -0.0276 -0.9900
vn -0.1384 -0.0278 -0.9900
vn -0.1543 -0.0685 -0.9857
vn -0.1543 -0.0686 -0.9856
vn 0.1365 0.0885 -0.9867
vn 0.1365 0.0886 -0.9867
vn 0.1300 0.0456 -0.9905
vn 0.1299 0.0456 -0.9905
vn 0.1299 0.0455 -0.9905
vn -0.2350 -0.0871 -0.9681
vn -0.2349 -0.0871 -0.9681
vn -0.1666 0.1404 -0.9760
vn 0.1960 0.1179 -0.9735
vn 0.1961 0.1180 -0.9735
vn 0.1619 0.0136 -0.9867
vn 0.1620 0.0136 -0.9867
vn -0.1619 -0.0119 -0.9867
vn -0.1620 -0.0119 -0.9867
vn -0.3628 0.0440 -0.9308
vn 0.0807 0.1860 -0.9792
vn 0.0807 0.1861 -0.9792
vn 0.2592 0.0010 -0.9658
vn 0.1831 0.0661 -0.9809
vn -0.1822 -0.0561 -0.9817
vn -0.1822 -0.0561 -0.9816
vn -0.2472 -0.0645 -0.9668
vn 0.2191 0.0744 -0.9728
vn 0.2191 0.0744 -0.9729
vn 0.2192 0.0744 -0.9728
vn 0.8268 -0.0123 0.5624
vn 0.8268 -0.0123 -0.5624
vn -0.8259 0.0455 0.5619
vn -0.8259 0.0455 0.5620
vn -0.8259 0.0455 -0.5620
vn -0.8259 0.0455 -0.5619
vn -0.8204 0.2407 0.5187
vn -0.8709 0.0695 0.4866
vn -0.8709 0.0695 0.4865
vn -0.8709 0.0695 -0.4865
vn -0.8204 0.2407 -0.5187
vn 0.8706 0.2345 0.4325
vn 0.8441 -0.0690 0.5318
vn 0.8441 -0.0691 0.5318
vn 0.8441 -0.0691 -0.5318
vn 0.8706 0.2345 -0.4325
vn 0.5803 0.7237 0.3735
vn 0.5803 0.7238 0.3734
vn 0.7714 0.5794 0.2632
vn 0.7714 0.5794 0.2631
vn 0.7714 0.5795 0.2631
vn 0.7714 0.5795 -0.2631
vn 0.7714 0.5794 -0.2631
vn 0.5803 0.7237 -0.3734
vn 0.5803 0.7238 -0.3734
vn -0.8758 -0.3127 0.3678
vn -0.8758 -0.3127 0.3677
vn -0.8152 -0.1118 0.5683
vn -0.8152 -0.1118 -0.5683
vn -0.8152 -0.1119 -0.5683
vn -0.8758 -0.3127 -0.3677
vn 0.8229 0.0993 0.5595
vn 0.8228 0.0994 0.5596
vn 0.8228 0.0993 0.5595
vn 0.8228 0.0994 -0.5595
vn 0.8229 0.0993 -0.5595
vn 0.8228 0.0993 -0.5595
vn -0.8259 -0.0477 0.5618
vn -0.8260 -0.0477 0.5617
vn -0.8259 -0.0477 -0.5618
vn -0.8260 -0.0477 -0.5617
vn -0.8259 -0.0477 -0.5617
vn -0.8349 -0.1698 0.5235
vn -0.8847 -0.0963 0.4561
vn -0.8847 -0.0963 -0.4561
vn -0.8349 -0.1698 -0.5235
vn 0.8237 0.3564 0.4410
vn 0.7954 0.3472 0.4968
vn 0.7954 0.3472 -0.4968
vn 0.8237 0.3564 -0.4410
vn 0.7695 0.3652 0.5239
vn 0.9033 0.2253 0.3651
vn 0.9033 0.2253 0.3650
vn 0.9033 0.2253 -0.3651
vn 0.9033 0.2253 -0.3650
vn 0.7695 0.3652 -0.5239
vn -0.9319 0.0713 0.3557
vn -0.7640 0.3313 0.5536
vn -0.7640 0.3313 -0.5536
vn -0.9319 0.0713 -0.3557
vn 0.7383 -0.0634 0.6715
vn 0.7382 -0.0635 0.6715
vn 0.7383 -0.0634 -0.6715
vn -0.7379 0.0743 0.6708
vn -0.7378 0.0743 0.6709
vn -0.7378 0.0743 -0.6709
vn -0.7078 0.3744 0.5990
vn -0.7470 0.3721 0.5509
vn -0.7470 0.3721 -0.5509
vn -0.7078 0.3744 -0.5990
vn 0.7698 -0.1546 0.6192
vn 0.7298 -0.2679 0.6290
vn 0.7297 -0.2679 0.6290
vn 0.7297 -0.2680 -0.6291
vn 0.7297 -0.2679 -0.6290
vn 0.7698 -0.1546 -0.6192
vn -0.7974 -0.0631 0.6001
vn -0.7974 -0.0630 0.6001
vn -0.8053 -0.2545 0.5354
vn -0.8053 -0.2546 0.5354
vn -0.8053 -0.2546 -0.5354
vn -0.8053 -0.2545 -0.5354
vn -0.7974 -0.0631 -0.6001
vn -0.7974 -0.0630 -0.6001
vn 0.6577 0.5012 0.5624
vn 0.6576 0.5011 0.5624
vn 0.6576 0.5011 0.5625
vn 0.7150 0.3102 0.6265
vn 0.7150 0.3103 0.6265
vn 0.7150 0.3102 -0.6265
vn 0.7150 0.3103 -0.6265
vn 0.6577 0.5012 -0.5624
vn 0.6576 0.5011 -0.5624
vn 0.6577 0.5011 -0.5624
vn 0.3801 0.6304 0.6768
vn 0.7173 0.5287 0.4538
vn 0.7173 0.5287 0.4539
vn 0.7173 0.5287 -0.4539
vn 0.7173 0.5287 -0.4538
vn 0.3801 0.6304 -0.6768
vn -0.8843 -0.2410 0.3998
vn -0.8844 -0.2410 0.3998
vn -0.8488 -0.0266 0.5281
vn -0.8488 -0.0265 0.5281
vn -0.8488 -0.0266 -0.5280
vn -0.8488 -0.0266 -0.5281
vn -0.8844 -0.2410 -0.3998
vn -0.8843 -0.2410 -0.3998
vn 0.8258 0.0750 0.5589
vn 0.8258 0.0750 -0.5589
vn -0.8268 -0.0549 0.5598
vn -0.8268 -0.0549 -0.5598
vn -0.8345 -0.2291 0.5011
vn -0.8345 -0.2291 0.5012
vn -0.8993 -0.1731 0.4017
vn -0.8993 -0.1730 0.4016
vn -0.8993 -0.1731 -0.4017
vn -0.8993 -0.1730 -0.4016
vn -0.8994 -0.1723 -0.4017
vn -0.8345 -0.2291 -0.5012
vn 0.8520 0.3145 0.4186
vn 0.8520 0.3144 0.4186
vn 0.8137 0.3241 0.4825
vn 0.8137 0.3241 -0.4825
vn 0.8520 0.3144 -0.4186
vn 0.8460 0.0780 0.5274
vn 0.9218 0.0336 0.3863
vn 0.9218 0.0336 0.3862
vn 0.9218 0.0336 -0.3862
vn 0.9218 0.0336 -0.3863
vn 0.8460 0.0780 -0.5274
vn -0.9302 0.2076 0.3027
vn -0.9302 0.2075 0.3028
vn -0.9302 0.2076 0.3028
vn -0.6108 0.5642 0.5555
vn -0.6108 0.5642 -0.5555
vn -0.9302 0.2075 -0.3028
vn -0.9302 0.2076 -0.3028
vn 0.1734 -0.0249 0.9845
vn -0.1613 -0.0122 0.9868
vn 0.1211 -0.0110 0.9926
vn -0.1212 0.0117 0.9926
vn -0.1612 0.0071 -0.9869
vn 0.1613 0.0165 -0.9868
vn 0.2764 0.0495 -0.9598
vn 0.1214 -0.0108 -0.9925
vn -0.1214 0.0116 -0.9925
vn -0.1667 0.1404 -0.9760
vn -0.8757 -0.3127 0.3678
vn -0.8758 -0.3127 -0.3678
vn 0.8228 0.0994 0.5595
vn -0.8259 -0.0477 0.5617
vn 0.6577 0.5011 0.5624
vn 0.6576 0.5011 -0.5625
vn -0.8993 -0.1731 0.4016
vn -0.8345 -0.2292 -0.5012
usemtl Green
s 1
f 2//1 4//2 1//3
f 1//4 5//4 6//4
f 7//5 9//5 10//5
f 7//6 11//6 12//6
f 12//7 8//7 7//7
f 14//8 3//8 15//8
f 14//9 11//9 10//10
f 10//11 16//11 14//11
f 16//12 4//13 14//13
f 17//14 19//15 20//14
f 20//16 22//17 17//17
f 23//18 25//18 26//18
f 23//19 27//19 28//19
f 28//20 24//21 23//20
f 20//22 31//22 30//22
f 30//23 27//23 26//23
f 26//24 32//24 30//24
f 30//25 21//25 20//25
f 34//26 36//27 33//26
f 33//28 37//29 38//30
f 40//31 36//32 39//33
f 39//34 35//34 41//34
f 41//35 43//36 39//35
f 39//37 44//38 40//39
f 46//40 43//41 45//40
f 45//42 42//42 47//43
f 47//44 49//44 45//44
f 45//45 50//45 46//45
f 51//46 50//46 49//46
f 51//47 48//47 53//47
f 53//48 52//49 51//48
f 55//50 57//51 58//51
f 58//52 60//53 55//53
f 61//54 63//54 64//54
f 61//55 65//55 66//55
f 66//56 62//56 61//56
f 58//57 69//57 68//57
f 68//58 65//59 64//60
f 64//61 70//61 68//61
f 68//62 59//62 58//62
f 72//63 74//64 71//64
f 71//65 76//66 72//66
f 77//67 79//67 80//67
f 80//68 82//68 77//68
f 77//69 83//69 78//69
f 84//70 73//71 72//71
f 72//72 86//72 84//72
f 86//73 78//73 84//73
f 84//74 83//74 85//75
f 87//76 89//76 90//77
f 91//78 88//79 87//80
f 93//81 95//81 96//82
f 96//83 98//84 93//83
f 93//85 99//86 94//86
f 101//87 88//87 100//87
f 100//88 92//89 102//90
f 102//91 94//91 100//91
f 100//92 99//92 101//92
f 104//93 106//94 103//94
f 103//95 108//96 104//97
f 104//98 110//99 109//98
f 109//100 111//100 112//100
f 112//101 114//102 109//103
f 109//104 105//105 104//106
f 112//107 116//108 115//108
f 115//109 117//110 118//110
f 118//111 120//112 115//111
f 115//113 113//114 112//115
f 121//116 117//117 122//116
f 122//118 124//118 121//118
f 121//119 119//119 118//120
f 125//121 127//122 128//122
f 129//123 126//124 125//123
f 131//125 133//125 134//125
f 134//126 136//127 131//126
f 131//128 137//128 132//128
f 139//129 126//129 138//129
f 138//130 130//131 140//130
f 140//132 132//132 138//132
f 138//133 137//134 139//135
f 141//136 3//136 2//136
f 141//137 73//137 142//137
f 6//138 144//139 143//139
f 144//140 75//141 143//141
f 145//142 5//142 16//142
f 145//143 9//144 146//144
f 145//145 79//145 86//145
f 145//146 76//146 144//146
f 148//147 15//147 147//147
f 15//148 142//148 147//149
f 142//150 85//150 147//150
f 85//151 148//151 147//151
f 149//152 13//153 12//152
f 12//154 148//155 149//156
f 148//157 82//158 149//157
f 149//159 81//160 150//160
f 146//161 8//161 151//162
f 151//163 13//163 150//163
f 151//164 81//164 80//165
f 80//166 146//166 151//166
f 153//167 18//168 152//169
f 90//170 153//171 152//172
f 154//173 21//174 155//174
f 154//175 92//176 91//177
f 155//178 32//178 156//178
f 156//179 25//179 157//179
f 156//180 95//180 102//180
f 102//181 155//181 156//181
f 159//182 31//182 158//182
f 158//183 19//183 153//183
f 158//184 89//184 101//184
f 101//185 159//185 158//185
f 160//186 29//186 28//186
f 28//187 159//187 160//188
f 159//189 98//189 160//190
f 160//191 97//191 161//191
f 157//192 24//192 162//192
f 162//193 29//193 161//193
f 162//194 97//194 96//194
f 96//195 157//195 162//195
f 163//196 35//197 34//196
f 163//198 105//198 164//198
f 38//199 166//200 165//200
f 166//201 107//201 165//201
f 167//202 37//202 40//202
f 40//203 168//203 167//203
f 168//204 110//204 167//204
f 167//205 108//205 166//205
f 169//206 42//206 41//206
f 41//207 164//208 169//208
f 164//209 114//209 169//210
f 169//211 113//211 170//211
f 171//212 44//213 46//213
f 46//214 172//215 171//214
f 172//216 116//217 171//217
f 171//218 111//219 168//219
f 173//220 48//221 47//222
f 47//223 170//223 173//224
f 170//225 120//226 173//226
f 173//227 119//228 174//229
f 175//230 54//230 53//230
f 53//231 174//232 175//232
f 174//233 124//234 175//233
f 175//235 123//235 176//235
f 172//236 52//237 177//236
f 177//238 54//238 176//239
f 177//240 123//240 122//241
f 122//242 172//243 177//243
f 179//244 56//244 178//244
f 128//245 179//245 178//245
f 180//246 59//246 181//246
f 180//247 130//247 129//247
f 181//248 70//249 182//248
f 182//250 63//251 183//251
f 182//252 133//253 140//254
f 140//255 181//255 182//255
f 185//256 69//257 184//257
f 184//258 57//258 179//258
f 184//259 127//259 139//259
f 139//260 185//260 184//260
f 186//261 67//261 66//261
f 66//262 185//262 186//263
f 185//264 136//265 186//264
f 186//266 135//266 187//266
f 183//267 62//268 188//269
f 188//270 67//270 187//270
f 188//271 135//271 134//271
f 134//272 183//272 188//273
f 2//1 3//2 4//2
f 1//4 4//4 5//4
f 7//5 8//5 9//5
f 7//6 10//6 11//6
f 12//7 13//7 8//7
f 14//8 4//274 3//8
f 14//9 15//9 11//9
f 10//11 9//11 16//11
f 16//12 5//13 4//13
f 17//14 18//14 19//15
f 20//16 21//275 22//17
f 23//18 24//18 25//18
f 23//19 26//19 27//19
f 28//20 29//20 24//21
f 20//22 19//22 31//22
f 30//23 31//23 27//23
f 26//24 25//24 32//24
f 30//25 32//25 21//25
f 34//26 35//276 36//27
f 33//28 36//277 37//29
f 40//31 37//32 36//32
f 39//34 36//34 35//34
f 41//35 42//36 43//36
f 39//37 43//39 44//38
f 46//40 44//40 43//41
f 45//42 43//43 42//42
f 47//44 48//44 49//44
f 45//45 49//45 50//45
f 51//46 52//46 50//46
f 51//47 49//47 48//47
f 53//48 54//48 52//49
f 55//50 56//51 57//51
f 58//52 59//53 60//53
f 61//54 62//54 63//54
f 61//55 64//55 65//55
f 66//56 67//56 62//56
f 58//57 57//57 69//57
f 68//58 69//60 65//59
f 64//61 63//61 70//61
f 68//62 70//62 59//62
f 72//63 73//64 74//64
f 71//65 75//278 76//66
f 77//67 78//67 79//67
f 80//68 81//68 82//68
f 77//69 82//69 83//69
f 84//70 85//71 73//71
f 72//72 76//72 86//72
f 86//73 79//73 78//73
f 84//74 78//75 83//74
f 87//76 88//279 89//76
f 91//78 92//80 88//79
f 93//81 94//82 95//81
f 96//83 97//83 98//84
f 93//85 98//280 99//86
f 101//87 89//87 88//87
f 100//88 88//89 92//89
f 102//91 95//91 94//91
f 100//92 94//92 99//92
f 104//93 105//281 106//94
f 103//95 107//282 108//96
f 104//98 108//98 110//99
f 109//100 110//100 111//100
f 112//101 113//103 114//102
f 109//104 114//106 105//105
f 112//107 111//108 116//108
f 115//109 116//110 117//110
f 118//111 119//111 120//112
f 115//113 120//115 113//114
f 121//116 118//116 117//117
f 122//118 123//283 124//118
f 121//119 124//120 119//119
f 125//121 126//122 127//122
f 129//123 130//124 126//124
f 131//125 132//125 133//125
f 134//126 135//126 136//127
f 131//128 136//128 137//128
f 139//129 127//129 126//129
f 138//130 126//130 130//131
f 140//132 133//132 132//132
f 138//133 132//135 137//134
f 141//136 142//136 3//136
f 141//137 74//137 73//137
f 6//138 5//139 144//139
f 144//140 76//141 75//141
f 145//142 144//142 5//142
f 145//143 16//143 9//144
f 145//145 146//145 79//145
f 145//146 86//146 76//146
f 148//147 11//147 15//147
f 15//148 3//148 142//148
f 142//150 73//150 85//150
f 85//151 83//151 148//151
f 149//152 150//153 13//153
f 12//154 11//156 148//155
f 148//157 83//157 82//158
f 149//159 82//159 81//160
f 146//161 9//284 8//161
f 151//163 8//163 13//163
f 151//164 150//164 81//164
f 80//166 79//285 146//166
f 153//167 19//286 18//168
f 90//170 89//170 153//171
f 154//173 22//287 21//174
f 154//175 155//176 92//176
f 155//178 21//178 32//178
f 156//179 32//179 25//179
f 156//180 157//180 95//180
f 102//181 92//181 155//181
f 159//182 27//182 31//182
f 158//183 31//183 19//183
f 158//184 153//184 89//184
f 101//185 99//185 159//185
f 160//186 161//186 29//186
f 28//187 27//187 159//187
f 159//189 99//189 98//189
f 160//191 98//191 97//191
f 157//192 25//192 24//192
f 162//193 24//193 29//193
f 162//194 161//194 97//194
f 96//195 95//195 157//195
f 163//196 164//196 35//197
f 163//198 106//198 105//198
f 38//199 37//200 166//200
f 166//201 108//201 107//201
f 167//202 166//202 37//202
f 40//203 44//203 168//203
f 168//204 111//204 110//204
f 167//205 110//205 108//205
f 169//206 170//206 42//206
f 41//207 35//208 164//208
f 164//209 105//210 114//209
f 169//211 114//211 113//211
f 171//212 168//213 44//213
f 46//214 50//214 172//215
f 172//216 117//217 116//217
f 171//218 116//219 111//219
f 173//220 174//288 48//221
f 47//223 42//223 170//223
f 170//225 113//225 120//226
f 173//227 120//289 119//228
f 175//230 176//230 54//230
f 53//231 48//231 174//232
f 174//233 119//234 124//234
f 175//235 124//235 123//235
f 172//236 50//237 52//237
f 177//238 52//238 54//238
f 177//240 176//240 123//240
f 122//242 117//242 172//243
f 179//244 57//244 56//244
f 128//245 127//245 179//245
f 180//246 60//246 59//246
f 180//247 181//247 130//247
f 181//248 59//248 70//249
f 182//250 70//290 63//251
f 182//252 183//253 133//253
f 140//255 130//291 181//255
f 185//256 65//257 69//257
f 184//258 69//258 57//258
f 184//259 179//259 127//259
f 139//260 137//260 185//260
f 186//261 187//261 67//261
f 66//262 65//263 185//262
f 185//264 137//264 136//265
f 186//266 136//266 135//266
f 183//267 63//268 62//268
f 188//270 62//270 67//270
f 188//271 187//271 135//271
f 134//272 133//272 183//272
