# Blender v2.93.5 OBJ File: ''
# www.blender.org
mtllib PlatformBottomRight.mtl
o Platform_BottomRight_Cube.054
v -0.031825 0.301556 1.433893
v 0.361691 0.321679 1.388373
v 0.361690 0.999998 1.562631
v -0.031825 0.999998 1.562631
v -0.031825 -0.495029 1.126630
v 0.361691 -0.458376 1.090356
v -0.511407 0.301556 1.433893
v -0.511407 -0.495028 1.126630
v -0.511407 0.999998 1.562631
v 0.548218 0.382049 1.251812
v 0.564018 0.999998 1.388373
v 0.666351 0.422295 0.981534
v 0.695131 0.999998 1.090356
v 0.537683 -0.348417 0.981534
v 0.627476 -0.127520 0.834541
v 0.737833 0.382049 0.534865
v 0.761911 0.341803 -0.000001
v 0.800284 0.999998 -0.000001
v 0.773949 0.999998 0.594610
v 0.666351 -0.348417 0.495034
v 0.685538 -0.421723 -0.000001
v 0.737833 0.382049 -0.534866
v 0.773949 0.999998 -0.594611
v 0.666351 0.422295 -0.981535
v 0.695131 0.999998 -1.090357
v 0.666351 -0.348417 -0.495035
v 0.627476 -0.127520 -0.834542
v 0.548218 0.382049 -1.251813
v 0.361691 0.321679 -1.388374
v 0.361690 0.999998 -1.562632
v 0.564018 0.999998 -1.388374
v 0.537683 -0.348417 -0.981535
v 0.361691 -0.458376 -1.090357
v -0.031825 0.301556 -1.433895
v -0.031825 0.999998 -1.562632
v -0.511407 0.301556 -1.433895
v -0.511407 0.999998 -1.562632
v -0.031825 -0.495029 -1.126632
v -0.511407 -0.495028 -1.126631
v -0.999999 0.301556 1.433893
v -0.999999 0.999998 1.562631
v -0.999999 -0.495029 1.126630
v 0.548218 -0.714561 -0.534866
v 0.558752 -0.806554 -0.000001
v 0.361691 -0.953165 -0.000001
v 0.361691 -0.852550 -0.594611
v -0.031825 -0.898546 -0.614527
v -0.031825 -0.999998 -0.000001
v -0.511407 -0.898546 -0.614527
v -0.511407 -0.999998 -0.000001
v -0.031825 -0.898545 0.614525
v 0.361691 -0.852550 0.594610
v -0.511407 -0.898546 0.614525
v 0.548218 -0.714561 0.534865
v -0.999999 0.301556 -1.433895
v -0.999999 -0.495029 -1.126632
v -0.999999 0.999998 -1.562632
v -0.999999 -0.898545 -0.614527
v -0.999999 -0.999998 -0.000001
v -0.999999 -0.898546 0.614525
vn 0.0619 -0.2145 0.9748
vn 0.0618 -0.2145 0.9748
vn 0.1220 -0.3557 0.9266
vn 0.1219 -0.3557 0.9266
vn -0.0000 -0.3599 0.9330
vn 0.0000 -0.1813 0.9834
vn 0.6309 -0.1882 0.7527
vn 0.9127 -0.1145 0.3922
vn 0.9194 -0.1535 0.3621
vn 0.6245 -0.2789 0.7295
vn 0.6249 -0.2787 0.7293
vn 0.6248 -0.2787 0.7294
vn 0.9971 -0.0602 0.0469
vn 0.9971 -0.0605 0.0465
vn 0.9971 -0.0604 0.0467
vn 0.9936 -0.0997 0.0529
vn 0.9936 -0.0998 0.0526
vn 0.9936 -0.0999 0.0525
vn 0.9786 -0.1097 0.1738
vn 0.9842 -0.0761 0.1600
vn 0.9841 -0.0758 0.1605
vn 0.9842 -0.0760 0.1602
vn 0.9971 -0.0602 -0.0469
vn 0.9971 -0.0603 -0.0467
vn 0.9971 -0.0604 -0.0466
vn 0.9841 -0.0759 -0.1604
vn 0.9842 -0.0761 -0.1601
vn 0.9842 -0.0760 -0.1602
vn 0.9786 -0.1097 -0.1738
vn 0.9936 -0.0998 -0.0526
vn 0.9936 -0.0997 -0.0529
vn 0.9936 -0.0999 -0.0525
vn 0.6309 -0.1882 -0.7527
vn 0.6249 -0.2787 -0.7293
vn 0.6245 -0.2789 -0.7295
vn 0.6244 -0.2790 -0.7296
vn 0.9194 -0.1535 -0.3621
vn 0.9127 -0.1145 -0.3922
vn 0.0619 -0.2145 -0.9748
vn 0.0000 -0.1813 -0.9834
vn -0.0000 -0.3599 -0.9330
vn 0.1220 -0.3557 -0.9266
vn 0.1219 -0.3557 -0.9266
vn 0.6040 -0.7847 -0.1394
vn 0.6039 -0.7847 -0.1395
vn 0.9491 -0.3055 -0.0764
vn 0.9491 -0.3054 -0.0765
vn 0.9354 -0.2526 -0.2474
vn 0.6358 -0.5972 -0.4889
vn 0.1197 -0.9792 -0.1636
vn 0.1196 -0.9792 -0.1637
vn 0.1257 -0.7779 -0.6157
vn 0.1256 -0.7779 -0.6157
vn -0.0000 -0.7855 -0.6189
vn 0.0000 -0.9866 -0.1629
vn 0.1196 -0.9792 0.1637
vn 0.1197 -0.9792 0.1636
vn 0.1196 -0.9792 0.1636
vn 0.0000 -0.9866 0.1629
vn -0.0000 -0.7855 0.6189
vn 0.1256 -0.7779 0.6157
vn 0.1257 -0.7779 0.6157
vn 0.6040 -0.7847 0.1394
vn 0.6039 -0.7847 0.1395
vn 0.6358 -0.5972 0.4889
vn 0.9354 -0.2526 0.2474
vn 0.9491 -0.3055 0.0764
vn 0.9491 -0.3054 0.0765
vn 0.0000 1.0000 0.0000
vn -1.0000 -0.0000 0.0000
vn 0.6246 -0.2788 0.7295
vn 0.9971 -0.0604 0.0466
vn 0.9936 -0.0997 0.0528
vn 0.9971 -0.0604 -0.0467
vn 0.9936 -0.0996 -0.0530
vn 0.6250 -0.2786 -0.7292
vn 0.0618 -0.2145 -0.9748
usemtl LightBrown.002
s 1
f 2//1 4//2 1//1
f 1//3 6//4 2//3
f 1//5 8//5 5//5
f 4//6 7//6 1//6
f 11//7 2//7 10//7
f 10//8 13//8 11//8
f 10//9 15//9 12//9
f 2//10 14//11 10//12
f 16//13 18//14 19//15
f 20//16 17//17 16//18
f 16//19 15//19 20//19
f 19//20 12//21 16//22
f 22//23 18//24 17//25
f 24//26 23//27 22//28
f 22//29 27//29 24//29
f 17//30 26//31 22//32
f 29//33 31//33 28//33
f 32//34 29//35 28//36
f 28//37 27//37 32//37
f 28//38 25//38 24//38
f 35//39 29//39 34//39
f 36//40 35//40 34//40
f 34//41 39//41 36//41
f 34//42 33//42 38//43
f 7//6 41//6 40//6
f 40//5 8//5 7//5
f 43//44 45//44 46//45
f 43//46 21//47 44//46
f 32//48 26//48 43//48
f 43//49 33//49 32//49
f 46//50 48//51 47//50
f 38//52 46//53 47//53
f 47//54 39//54 38//54
f 48//55 49//55 47//55
f 48//56 52//57 51//58
f 53//59 48//59 51//59
f 5//60 53//60 51//60
f 52//61 5//62 51//61
f 54//63 45//64 44//64
f 54//65 6//65 52//65
f 20//66 14//66 54//66
f 54//67 21//68 20//67
f 55//41 39//41 56//41
f 57//40 36//40 55//40
f 49//55 59//55 58//55
f 58//54 39//54 49//54
f 53//60 42//60 60//60
f 59//59 53//59 60//59
f 9//69 4//69 19//69
f 57//70 40//70 41//70
f 55//70 42//70 40//70
f 42//70 58//70 60//70
f 60//70 58//70 59//70
f 2//1 3//2 4//2
f 1//3 5//4 6//4
f 1//5 7//5 8//5
f 4//6 9//6 7//6
f 11//7 3//7 2//7
f 10//8 12//8 13//8
f 10//9 14//9 15//9
f 2//10 6//71 14//11
f 16//13 17//72 18//14
f 20//16 21//73 17//17
f 16//19 12//19 15//19
f 19//20 13//22 12//21
f 22//23 23//74 18//24
f 24//26 25//28 23//27
f 22//29 26//29 27//29
f 17//30 21//75 26//31
f 29//33 30//33 31//33
f 32//34 33//76 29//35
f 28//37 24//37 27//37
f 28//38 31//38 25//38
f 35//39 30//77 29//39
f 36//40 37//40 35//40
f 34//41 38//41 39//41
f 34//42 29//42 33//42
f 7//6 9//6 41//6
f 40//5 42//5 8//5
f 43//44 44//44 45//44
f 43//46 26//46 21//47
f 32//48 27//48 26//48
f 43//49 46//49 33//49
f 46//50 45//51 48//51
f 38//52 33//52 46//53
f 47//54 49//54 39//54
f 48//55 50//55 49//55
f 48//56 45//56 52//57
f 53//59 50//59 48//59
f 5//60 8//60 53//60
f 52//61 6//62 5//62
f 54//63 52//64 45//64
f 54//65 14//65 6//65
f 20//66 15//66 14//66
f 54//67 44//67 21//68
f 55//41 36//41 39//41
f 57//40 37//40 36//40
f 49//55 50//55 59//55
f 58//54 56//54 39//54
f 53//60 8//60 42//60
f 59//59 50//59 53//59
f 4//69 3//69 11//69
f 11//69 13//69 4//69
f 13//69 19//69 4//69
f 19//69 18//69 9//69
f 18//69 23//69 37//69
f 23//69 25//69 35//69
f 25//69 31//69 35//69
f 31//69 30//69 35//69
f 37//69 57//69 18//69
f 57//69 41//69 18//69
f 35//69 37//69 23//69
f 41//69 9//69 18//69
f 57//70 55//70 40//70
f 55//70 56//70 42//70
f 42//70 56//70 58//70
