# Blender v2.93.5 OBJ File: ''
# www.blender.org
mtllib PlatformTopLeft.mtl
o Platform_TopLeft_Cube.058
v -0.827402 0.142918 0.634615
v -0.854842 0.085014 0.000000
v -0.823519 0.007039 0.000000
v -0.796344 0.057705 0.619548
v -0.714817 0.133704 1.135838
v -0.745085 0.229775 1.163460
v -0.827402 0.142918 -0.634615
v -0.745085 0.229775 -1.163460
v -0.714817 0.133704 -1.135839
v -0.796344 0.057705 -0.619548
v 0.031823 0.258727 1.692305
v -0.361693 0.258727 1.639421
v -0.361693 0.159038 1.600500
v 0.031823 0.159038 1.652128
v 0.511404 0.132583 1.652128
v 0.511404 0.228493 1.692305
v -0.607889 0.258727 1.480767
v -0.578938 0.159038 1.445613
v 0.031823 -0.130839 1.638736
v 0.031824 -0.999998 1.562632
v 0.511406 -0.999998 1.562632
v 0.511404 -0.145956 1.638736
v -0.569288 -0.130839 1.433894
v -0.564020 -0.999998 1.388374
v -0.361691 -0.999998 1.562632
v -0.361693 -0.130839 1.587526
v -0.704727 -0.145315 1.126631
v -0.695132 -0.999998 1.090357
v -0.813079 -0.217696 -0.000000
v -0.800286 -0.999998 -0.000000
v -0.773950 -0.999998 0.594611
v -0.785990 -0.188744 0.614526
v -0.785990 -0.188744 -0.614526
v -0.773950 -0.999998 -0.594611
v -0.704727 -0.145315 -1.126631
v -0.695132 -0.999998 -1.090357
v -0.361693 -0.130839 -1.587526
v -0.361691 -0.999998 -1.562632
v -0.564020 -0.999998 -1.388374
v -0.569288 -0.130839 -1.433895
v 0.031823 -0.130839 -1.638736
v 0.031824 -0.999998 -1.562632
v -0.578938 0.159038 -1.445613
v -0.361693 0.159038 -1.600500
v 0.511404 -0.145956 -1.638736
v 0.511405 -0.999998 -1.562632
v 0.031823 0.159038 -1.652128
v 0.511404 0.132583 -1.652128
v 0.999999 -0.999998 1.562631
v 0.999997 -0.191306 1.638736
v 0.999997 0.053221 1.652128
v 0.999997 0.137793 1.692305
v -0.607889 0.258727 -1.480768
v -0.361693 0.258727 -1.639420
v 0.031823 0.258727 -1.692305
v 0.511404 0.228493 -1.692305
v 0.999997 -0.191306 -1.638736
v 0.999999 -0.999998 -1.562632
v 0.999997 0.053221 -1.652128
v 0.999997 0.137793 -1.692305
v -0.858462 0.186391 0.649681
v -0.886165 0.135725 0.000000
v -0.775353 0.262391 1.191082
v -0.819409 0.655999 0.569834
v -0.844112 0.670019 0.000000
v -0.883482 0.471034 0.000000
v -0.856463 0.474767 0.633486
v -0.775600 0.482119 1.161643
v -0.746073 0.641979 1.045706
v -0.706189 0.761486 0.889103
v -0.746073 0.813227 0.527400
v -0.765757 0.838764 0.000000
v -0.819409 0.655999 -0.569834
v -0.856463 0.474767 -0.633486
v -0.746073 0.813227 -0.527400
v -0.706189 0.761486 -0.889103
v -0.746073 0.641979 -1.045706
v -0.775600 0.482119 -1.161643
v -0.858462 0.186391 -0.649681
v -0.775353 0.262391 -1.191082
v 0.031823 0.287724 1.732482
v -0.361693 0.287724 1.678342
v 0.511404 0.261269 1.732482
v 0.031823 0.684040 1.527640
v -0.361693 0.677029 1.479144
v -0.361693 0.494501 1.638273
v 0.031823 0.496253 1.691316
v 0.511404 0.492474 1.691315
v 0.511404 0.684039 1.527640
v 0.511404 0.864300 1.200289
v 0.031823 0.864301 1.200289
v -0.361693 0.851532 1.161643
v -0.624874 0.655999 1.333654
v -0.641085 0.489243 1.479144
v -0.614067 0.813227 1.045706
v -0.636839 0.287724 1.515922
v 0.031823 0.972458 -0.654703
v -0.361693 0.956435 -0.633486
v -0.361692 0.999998 0.000000
v 0.031823 0.999998 0.000000
v 0.511404 0.999998 0.000000
v 0.511404 0.972458 -0.654703
v 0.511404 0.864300 -1.200289
v 0.031823 0.864301 -1.200289
v -0.361693 0.851532 -1.161643
v -0.624874 0.908365 -0.569834
v -0.635681 0.940412 0.000000
v -0.614067 0.813227 -1.045706
v -0.624874 0.908365 0.569834
v -0.361693 0.956435 0.633486
v 0.031823 0.972458 0.654703
v 0.511404 0.972458 0.654703
v 0.999997 0.972458 -0.654703
v 0.999997 0.864301 -1.200289
v 0.999997 0.999998 0.000000
v 0.999997 0.972458 0.654703
v 0.999997 0.864301 1.200289
v 0.999997 0.684040 1.527640
v 0.999997 0.481136 1.691316
v 0.999997 0.181907 1.732482
v -0.636839 0.287724 -1.515922
v -0.361693 0.287724 -1.678342
v -0.624874 0.655999 -1.333654
v -0.361693 0.677029 -1.479144
v -0.361693 0.494501 -1.638273
v -0.641085 0.489243 -1.479144
v 0.031823 0.684040 -1.527641
v 0.031823 0.496253 -1.691316
v 0.511404 0.684039 -1.527640
v 0.511404 0.492474 -1.691315
v 0.031823 0.287724 -1.732482
v 0.511404 0.261269 -1.732482
v 0.999997 0.181906 -1.732482
v 0.999997 0.684040 -1.527640
v 0.999997 0.481136 -1.691315
v 0.999997 0.305057 -1.745874
v 0.511404 0.350407 -1.745874
v 0.031823 0.365523 -1.745874
v -0.361693 0.365523 -1.691315
v -0.646489 0.365523 -1.527641
v -0.785443 0.351047 -1.200289
v 0.999997 0.305057 1.745874
v 0.511404 0.350407 1.745874
v -0.646489 0.365523 1.527640
v -0.361693 0.365523 1.691316
v -0.785443 0.351047 1.200289
v 0.031823 0.365523 1.745874
v -0.868815 0.307619 -0.654703
v -0.896605 0.278667 0.000000
v -0.868815 0.307619 0.654703
vn -0.9294 -0.3619 0.0718
vn -0.9132 -0.3557 0.1986
vn -0.9133 -0.3557 0.1986
vn -0.9133 -0.3557 -0.1986
vn -0.9294 -0.3619 -0.0718
vn -0.1225 -0.3660 0.9225
vn -0.0225 -0.3799 0.9248
vn -0.0224 -0.3799 0.9247
vn -0.8356 -0.3799 0.3968
vn -0.8355 -0.3801 0.3967
vn -0.8356 -0.3800 0.3967
vn -0.5222 -0.3626 0.7719
vn -0.0013 -0.0880 0.9961
vn -0.0028 -0.0895 0.9960
vn -0.0014 -0.0880 0.9961
vn -0.6243 -0.0335 0.7805
vn -0.0022 -0.0468 0.9989
vn -0.0061 -0.0512 0.9987
vn -0.0021 -0.0469 0.9989
vn -0.1295 -0.0452 0.9905
vn -0.1293 -0.0449 0.9906
vn -0.1295 -0.0451 0.9906
vn -0.9146 -0.0270 0.4035
vn -0.9147 -0.0271 0.4032
vn -0.9146 -0.0270 0.4034
vn -0.5871 -0.0442 0.8083
vn -0.5869 -0.0441 0.8085
vn -0.5870 -0.0442 0.8084
vn -0.9133 -0.0466 0.4046
vn -0.9133 -0.0464 0.4047
vn -0.9989 -0.0161 0.0446
vn -0.9989 -0.0162 0.0445
vn -0.9989 -0.0162 0.0444
vn -0.9873 -0.0180 0.1578
vn -0.9874 -0.0183 0.1574
vn -0.9989 -0.0162 -0.0445
vn -0.9989 -0.0161 -0.0446
vn -0.9989 -0.0161 -0.0445
vn -0.9860 -0.0427 0.1610
vn -0.9860 -0.0428 0.1610
vn -0.9979 -0.0445 0.0468
vn -0.9979 -0.0446 0.0467
vn -0.9874 -0.0183 -0.1574
vn -0.9873 -0.0180 -0.1578
vn -0.9979 -0.0445 -0.0468
vn -0.9860 -0.0428 -0.1610
vn -0.9860 -0.0426 -0.1611
vn -0.9860 -0.0427 -0.1610
vn -0.6243 -0.0335 -0.7805
vn -0.9146 -0.0270 -0.4034
vn -0.9146 -0.0270 -0.4035
vn -0.0648 -0.0579 -0.9962
vn -0.9133 -0.0466 -0.4046
vn -0.9134 -0.0468 -0.4045
vn -0.5870 -0.0441 -0.8084
vn -0.5871 -0.0442 -0.8083
vn -0.5870 -0.0442 -0.8084
vn -0.0028 -0.0895 -0.9960
vn -0.0013 -0.0880 -0.9961
vn -0.0014 -0.0880 -0.9961
vn -0.1295 -0.0452 -0.9905
vn -0.1293 -0.0449 -0.9906
vn -0.1294 -0.0450 -0.9906
vn -0.0022 -0.0468 -0.9989
vn -0.0061 -0.0512 -0.9987
vn -0.0018 -0.0475 -0.9989
vn -0.0027 -0.0896 0.9960
vn -0.0042 -0.0912 0.9958
vn -0.0065 -0.0511 0.9987
vn -0.0019 -0.0475 0.9989
vn -0.0706 -0.4057 0.9113
vn -0.5222 -0.3626 -0.7719
vn -0.8356 -0.3800 -0.3967
vn -0.8356 -0.3799 -0.3968
vn -0.0224 -0.3799 -0.9247
vn -0.0225 -0.3799 -0.9248
vn -0.1225 -0.3660 -0.9225
vn -0.0042 -0.0912 -0.9958
vn -0.0028 -0.0896 -0.9960
vn -0.0065 -0.0511 -0.9987
vn -0.0706 -0.4057 -0.9113
vn -0.0648 -0.0579 0.9962
vn 1.0000 0.0000 0.0000
vn 0.0000 -1.0000 -0.0000
vn -0.8356 -0.3800 0.3968
vn -0.1294 -0.0450 0.9906
vn -0.9147 -0.0271 0.4033
vn -0.9134 -0.0468 0.4045
vn -0.9989 -0.0160 0.0446
vn -0.9873 -0.0182 0.1576
vn -0.9989 -0.0160 -0.0446
vn -0.9860 -0.0427 0.1611
vn -0.9873 -0.0182 -0.1576
vn -0.9979 -0.0446 -0.0467
vn -0.9133 -0.0464 -0.4047
vn -0.1295 -0.0451 -0.9906
vn -0.0021 -0.0469 -0.9989
vn -0.8356 -0.3800 -0.3968
vn -0.8247 -0.5595 0.0827
vn -0.6994 -0.6826 0.2120
vn -0.9780 0.2039 0.0438
vn -0.9531 0.2640 0.1481
vn -0.8706 0.4672 0.1544
vn -0.9028 0.4269 0.0519
vn -0.9780 0.2039 -0.0438
vn -0.9028 0.4269 -0.0519
vn -0.8706 0.4672 -0.1544
vn -0.9531 0.2640 -0.1481
vn -0.8247 -0.5595 -0.0827
vn -0.6994 -0.6826 -0.2120
vn -0.0801 -0.8039 0.5894
vn -0.0468 -0.7919 0.6088
vn -0.1040 0.6535 0.7497
vn -0.1040 0.6535 0.7498
vn 0.0025 0.6533 0.7571
vn 0.0026 0.6533 0.7571
vn 0.0000 0.8760 0.4824
vn -0.0752 0.8737 0.4807
vn -0.0752 0.8737 0.4806
vn -0.4101 0.6102 0.6778
vn -0.3240 0.8321 0.4501
vn -0.3240 0.8321 0.4502
vn -0.7607 0.5864 0.2783
vn -0.8509 0.3957 0.3456
vn -0.8509 0.3958 0.3455
vn -0.3122 -0.8034 0.5070
vn -0.5231 -0.8006 0.2923
vn -0.0218 0.9982 -0.0551
vn 0.0000 0.9991 -0.0420
vn 0.0000 0.9809 -0.1945
vn -0.0506 0.9796 -0.1944
vn -0.0507 0.9796 -0.1943
vn -0.0504 0.9796 -0.1946
vn -0.2033 0.9771 -0.0632
vn -0.2271 0.9546 -0.1926
vn -0.2270 0.9546 -0.1926
vn -0.6607 0.7316 -0.1683
vn -0.6607 0.7315 -0.1683
vn -0.6216 0.7812 -0.0583
vn -0.2033 0.9771 0.0632
vn -0.6216 0.7812 0.0583
vn -0.6216 0.7811 0.0583
vn -0.6607 0.7316 0.1683
vn -0.6607 0.7315 0.1683
vn -0.2271 0.9546 0.1926
vn -0.2270 0.9546 0.1927
vn -0.0218 0.9982 0.0551
vn -0.0506 0.9796 0.1944
vn -0.0507 0.9796 0.1943
vn 0.0000 0.9809 0.1945
vn 0.0000 0.9991 0.0420
vn 0.0074 0.6386 0.7695
vn -0.1248 -0.7169 0.6860
vn -0.3122 -0.8034 -0.5070
vn -0.5231 -0.8006 -0.2923
vn -0.4101 0.6102 -0.6778
vn -0.8509 0.3957 -0.3456
vn -0.8509 0.3958 -0.3455
vn -0.7607 0.5864 -0.2783
vn -0.3240 0.8321 -0.4501
vn -0.3240 0.8321 -0.4502
vn -0.1040 0.6535 -0.7497
vn -0.1040 0.6536 -0.7497
vn -0.0752 0.8737 -0.4806
vn -0.0752 0.8737 -0.4807
vn 0.0000 0.8760 -0.4824
vn 0.0026 0.6533 -0.7571
vn -0.0801 -0.8039 -0.5894
vn -0.0468 -0.7919 -0.6088
vn -0.0468 -0.7920 -0.6088
vn -0.1245 -0.7169 -0.6860
vn -0.1248 -0.7169 -0.6859
vn -0.1248 -0.7169 -0.6860
vn 0.0074 0.6386 -0.7695
vn -0.0160 -0.1252 -0.9920
vn -0.0160 -0.1251 -0.9920
vn 0.0188 0.3244 -0.9457
vn -0.1261 0.3796 -0.9165
vn -0.1262 0.3797 -0.9164
vn -0.1262 0.3798 -0.9164
vn 0.0073 0.3714 -0.9284
vn 0.0073 0.3714 -0.9285
vn -0.0069 -0.1584 -0.9873
vn -0.1349 -0.1656 -0.9769
vn -0.1349 -0.1655 -0.9769
vn -0.4698 0.3378 -0.8156
vn -0.4698 0.3377 -0.8156
vn -0.4963 -0.1660 -0.8521
vn -0.4963 -0.1660 -0.8522
vn -0.9053 -0.1570 -0.3947
vn -0.9072 0.1838 -0.3786
vn -0.9072 0.1838 -0.3785
vn 0.0188 0.3244 0.9457
vn -0.0160 -0.1252 0.9920
vn -0.4698 0.3378 0.8156
vn -0.4698 0.3377 0.8156
vn -0.9072 0.1838 0.3785
vn -0.9072 0.1838 0.3786
vn -0.9053 -0.1570 0.3947
vn -0.4963 -0.1660 0.8521
vn -0.1262 0.3797 0.9164
vn -0.1261 0.3796 0.9165
vn -0.1262 0.3797 0.9165
vn -0.1349 -0.1656 0.9769
vn -0.1349 -0.1655 0.9769
vn -0.0069 -0.1584 0.9873
vn 0.0073 0.3714 0.9284
vn 0.0073 0.3714 0.9285
vn -0.9965 0.0730 -0.0405
vn -0.9840 0.1024 -0.1457
vn -0.9840 0.1025 -0.1457
vn -0.9810 -0.1065 -0.1620
vn -0.9957 -0.0793 -0.0472
vn -0.9965 0.0730 0.0405
vn -0.9957 -0.0793 0.0472
vn -0.9810 -0.1065 0.1620
vn -0.9840 0.1024 0.1457
vn -0.9840 0.1025 0.1457
vn -0.0468 -0.7920 0.6088
vn -0.1040 0.6536 0.7497
vn -0.0751 0.8736 0.4807
vn -0.4101 0.6102 0.6779
vn -0.2270 0.9546 -0.1927
vn -0.0504 0.9796 0.1946
vn -0.4101 0.6102 -0.6779
vn -0.1040 0.6535 -0.7498
vn -0.1261 0.3797 -0.9165
vn -0.9072 0.1837 -0.3786
vn -0.0160 -0.1251 0.9920
vn -0.9072 0.1837 0.3786
vn -0.1261 0.3797 0.9165
vn -0.9965 0.0730 -0.0406
vn -0.9957 -0.0792 -0.0472
vn -0.9965 0.0730 0.0406
vn -0.9957 -0.0792 0.0472
usemtl LightBrown.003
s 1
f 2//1 4//1 1//1
f 1//2 5//3 6//3
f 7//4 9//4 10//4
f 10//5 2//5 7//5
f 12//6 14//6 11//6
f 14//7 16//8 11//7
f 6//9 18//10 17//11
f 17//12 13//12 12//12
f 20//13 22//14 19//15
f 23//16 25//16 26//16
f 19//17 15//18 14//19
f 19//20 13//21 26//22
f 27//23 24//24 23//25
f 26//26 18//27 23//28
f 23//29 5//29 27//30
f 29//31 31//32 32//33
f 32//34 28//35 27//34
f 34//36 29//37 33//38
f 27//39 4//40 32//39
f 32//41 3//41 29//42
f 36//43 33//44 35//44
f 33//45 3//45 10//45
f 10//46 35//47 33//48
f 38//49 40//49 37//49
f 39//50 35//51 40//51
f 42//52 37//52 41//52
f 40//53 9//53 43//54
f 43//55 37//56 40//57
f 45//58 42//59 41//60
f 41//61 44//62 47//63
f 41//64 48//65 45//66
f 21//67 50//68 22//14
f 51//69 22//70 50//69
f 52//71 15//71 51//71
f 53//72 44//72 43//72
f 43//73 8//74 53//73
f 56//75 47//76 55//76
f 47//77 54//77 55//77
f 57//78 46//79 45//58
f 45//66 59//80 57//80
f 60//81 48//81 56//81
f 26//82 20//82 19//82
f 49//83 57//83 50//83
f 21//84 20//84 31//84
f 60//83 51//83 59//83
f 59//83 50//83 57//83
f 2//1 3//1 4//1
f 1//2 4//3 5//3
f 7//4 8//4 9//4
f 10//5 3//5 2//5
f 12//6 13//6 14//6
f 14//7 15//8 16//8
f 6//9 5//85 18//10
f 17//12 18//12 13//12
f 20//13 21//67 22//14
f 23//16 24//16 25//16
f 19//17 22//70 15//18
f 19//20 14//86 13//21
f 27//23 28//87 24//24
f 26//26 13//28 18//27
f 23//29 18//88 5//29
f 29//31 30//89 31//32
f 32//34 31//90 28//35
f 34//36 30//91 29//37
f 27//39 5//92 4//40
f 32//41 4//41 3//41
f 36//43 34//93 33//44
f 33//45 29//94 3//45
f 10//46 9//48 35//47
f 38//49 39//49 40//49
f 39//50 36//50 35//51
f 42//52 38//52 37//52
f 40//53 35//95 9//53
f 43//55 44//57 37//56
f 45//58 46//79 42//59
f 41//61 37//96 44//62
f 41//64 47//97 48//65
f 21//67 49//68 50//68
f 51//69 15//18 22//70
f 52//71 16//71 15//71
f 53//72 54//72 44//72
f 43//73 9//98 8//74
f 56//75 48//75 47//76
f 47//77 44//77 54//77
f 57//78 58//78 46//79
f 45//66 48//65 59//80
f 60//81 59//81 48//81
f 26//82 25//82 20//82
f 49//83 58//83 57//83
f 20//84 25//84 24//84
f 24//84 28//84 20//84
f 28//84 31//84 20//84
f 31//84 30//84 21//84
f 30//84 34//84 46//84
f 34//84 36//84 42//84
f 36//84 39//84 42//84
f 39//84 38//84 42//84
f 46//84 58//84 30//84
f 58//84 49//84 30//84
f 42//84 46//84 34//84
f 49//84 21//84 30//84
f 60//83 52//83 51//83
f 59//83 51//83 50//83
usemtl Green.001
f 1//99 62//99 2//99
f 6//100 61//100 1//100
f 64//101 66//101 67//101
f 67//102 69//102 64//102
f 64//103 70//103 71//103
f 71//104 65//104 64//104
f 73//105 66//105 65//105
f 65//106 75//106 73//106
f 73//107 76//107 77//107
f 77//108 74//108 73//108
f 7//109 62//109 79//109
f 79//110 8//110 7//110
f 11//111 82//111 12//111
f 11//112 83//112 81//112
f 84//113 86//113 87//114
f 87//115 89//116 84//116
f 84//117 90//117 91//117
f 91//118 85//119 84//118
f 94//120 85//120 93//120
f 93//121 92//122 95//121
f 95//123 69//123 93//123
f 93//124 68//125 94//124
f 12//126 96//126 17//126
f 17//127 63//127 6//127
f 98//128 100//128 97//128
f 100//129 102//129 97//129
f 102//130 104//130 97//130
f 97//131 105//132 98//133
f 106//134 99//134 98//134
f 98//135 108//135 106//136
f 106//137 76//138 75//138
f 75//139 107//139 106//139
f 109//140 99//140 107//140
f 107//141 71//141 109//142
f 109//143 70//144 95//144
f 95//145 110//145 109//146
f 100//147 110//147 111//147
f 111//148 92//149 91//148
f 91//150 112//150 111//150
f 112//151 100//151 111//151
f 114//130 102//130 113//130
f 102//129 115//129 113//129
f 115//151 112//151 116//151
f 112//150 117//150 116//150
f 118//117 90//117 89//117
f 118//152 88//152 119//152
f 120//153 16//153 52//153
f 121//154 54//154 53//154
f 53//155 80//155 121//155
f 124//156 126//156 123//156
f 123//157 78//158 77//158
f 77//159 108//159 123//159
f 123//160 105//161 124//160
f 127//162 125//162 124//163
f 124//164 104//165 127//165
f 104//166 129//166 127//166
f 129//167 128//167 127//167
f 55//168 122//168 131//168
f 55//169 132//169 56//170
f 56//171 133//172 60//173
f 134//174 130//174 129//174
f 134//166 103//166 114//166
f 136//175 132//175 137//176
f 137//177 135//177 136//177
f 139//178 128//179 138//180
f 138//181 130//182 137//182
f 137//183 131//183 138//183
f 131//184 139//185 138//185
f 140//186 125//187 139//187
f 140//188 122//189 121//188
f 121//190 141//190 140//190
f 141//191 126//192 140//191
f 119//193 143//193 142//193
f 142//194 83//194 120//194
f 144//195 86//196 94//195
f 94//197 146//198 144//197
f 146//199 96//199 144//199
f 144//200 82//200 145//200
f 87//201 145//202 147//203
f 145//204 81//204 147//205
f 81//206 143//206 147//206
f 147//207 88//208 87//208
f 149//209 74//209 148//209
f 148//210 78//211 141//211
f 148//212 80//212 79//212
f 79//213 149//213 148//213
f 67//214 149//214 150//214
f 149//215 61//215 150//215
f 150//216 63//216 146//216
f 150//217 68//218 67//218
f 60//83 120//83 52//83
f 136//83 120//83 133//83
f 135//83 142//83 136//83
f 135//83 118//83 119//83
f 114//83 118//83 134//83
f 114//83 116//83 117//83
f 113//83 115//83 116//83
f 1//99 61//99 62//99
f 6//100 63//100 61//100
f 64//101 65//101 66//101
f 67//102 68//102 69//102
f 64//103 69//103 70//103
f 71//104 72//104 65//104
f 73//105 74//105 66//105
f 65//106 72//106 75//106
f 73//107 75//107 76//107
f 77//108 78//108 74//108
f 7//109 2//109 62//109
f 79//110 80//110 8//110
f 11//111 81//111 82//111
f 11//112 16//219 83//112
f 84//113 85//220 86//113
f 87//115 88//116 89//116
f 84//117 89//117 90//117
f 91//118 92//221 85//119
f 94//120 86//222 85//120
f 93//121 85//121 92//122
f 95//123 70//123 69//123
f 93//124 69//125 68//125
f 12//126 82//126 96//126
f 17//127 96//127 63//127
f 98//128 99//128 100//128
f 100//129 101//129 102//129
f 102//130 103//130 104//130
f 97//131 104//131 105//132
f 106//134 107//134 99//134
f 98//135 105//223 108//135
f 106//137 108//138 76//138
f 75//139 72//139 107//139
f 109//140 110//140 99//140
f 107//141 72//141 71//141
f 109//143 71//144 70//144
f 95//145 92//146 110//145
f 100//147 99//147 110//147
f 111//148 110//224 92//149
f 91//150 90//150 112//150
f 112//151 101//151 100//151
f 114//130 103//130 102//130
f 102//129 101//129 115//129
f 115//151 101//151 112//151
f 112//150 90//150 117//150
f 118//117 117//117 90//117
f 118//152 89//152 88//152
f 120//153 83//153 16//153
f 121//154 122//154 54//154
f 53//155 8//155 80//155
f 124//156 125//225 126//156
f 123//157 126//157 78//158
f 77//159 76//159 108//159
f 123//160 108//160 105//161
f 127//162 128//226 125//162
f 124//164 105//165 104//165
f 104//166 103//166 129//166
f 129//167 130//167 128//167
f 55//168 54//168 122//168
f 55//169 131//169 132//169
f 56//171 132//172 133//172
f 134//174 135//174 130//174
f 134//166 129//166 103//166
f 136//175 133//175 132//175
f 137//177 130//177 135//177
f 139//178 125//227 128//179
f 138//181 128//181 130//182
f 137//183 132//183 131//183
f 131//184 122//185 139//185
f 140//186 126//186 125//187
f 140//188 139//189 122//189
f 121//190 80//190 141//190
f 141//191 78//228 126//192
f 119//193 88//193 143//193
f 142//194 143//229 83//194
f 144//195 145//196 86//196
f 94//197 68//230 146//198
f 146//199 63//199 96//199
f 144//200 96//200 82//200
f 87//201 86//231 145//202
f 145//204 82//205 81//204
f 81//206 83//206 143//206
f 147//207 143//208 88//208
f 149//209 66//232 74//209
f 148//210 74//211 78//211
f 148//212 141//212 80//212
f 79//213 62//233 149//213
f 67//214 66//234 149//214
f 149//215 62//235 61//215
f 150//216 61//216 63//216
f 150//217 146//218 68//218
f 60//83 133//83 120//83
f 136//83 142//83 120//83
f 135//83 119//83 142//83
f 135//83 134//83 118//83
f 114//83 117//83 118//83
f 114//83 113//83 116//83
