# Blender v2.93.5 OBJ File: ''
# www.blender.org
mtllib PlatformBottomMiddle.mtl
o Platform_BottomMiddle_Cube.050
v -1.000000 0.301556 1.433895
v -0.506901 0.301556 1.433895
v -0.506900 0.999999 1.562632
v -1.000000 0.999999 1.562632
v -1.000000 -0.495029 1.126631
v -0.506901 -0.495029 1.126631
v -1.000000 0.301556 -1.433895
v -1.000000 0.999999 -1.562633
v -0.506900 0.999999 -1.562633
v -0.506901 0.301556 -1.433895
v -0.506901 -0.495029 -1.126632
v -1.000000 -0.495029 -1.126632
v -1.000000 -0.898545 -0.614527
v -0.506901 -0.898547 -0.614527
v -0.506901 -0.999999 -0.000000
v -1.000000 -0.999999 -0.000000
v -1.000000 -0.898547 0.614526
v -0.506901 -0.898547 0.614526
v -0.029994 -0.898547 0.614526
v -0.029994 -0.495029 1.126631
v -0.029994 -0.999999 -0.000000
v -0.029994 -0.898545 -0.614527
v -0.029994 -0.495029 -1.126632
v -0.029994 0.301556 -1.433895
v -0.029994 0.999999 -1.562633
v -0.029994 0.301556 1.433895
v -0.029994 0.999999 1.562632
v 0.999999 0.301556 1.433895
v 0.999999 0.999999 1.562632
v 0.446913 0.999999 1.562632
v 0.446913 0.301556 1.433895
v 0.446913 -0.495029 1.126631
v 0.999999 -0.495029 1.126631
v 0.999999 0.301556 -1.433895
v 0.446913 0.301556 -1.433895
v 0.446913 0.999999 -1.562633
v 0.999999 0.999999 -1.562633
v 0.999999 -0.495029 -1.126632
v 0.446913 -0.495029 -1.126632
v 0.999999 -0.898545 -0.614527
v 0.999999 -0.999999 -0.000000
v 0.446914 -0.999999 -0.000000
v 0.446913 -0.898547 -0.614527
v 0.999999 -0.898547 0.614526
v 0.446913 -0.898547 0.614526
vn 0.0000 -0.1813 0.9834
vn 0.0000 -0.3599 0.9330
vn 0.0000 -0.1813 -0.9834
vn 0.0000 -0.3599 -0.9330
vn 0.0000 -0.9866 -0.1629
vn -0.0000 -0.7855 -0.6189
vn 0.0000 -0.9866 0.1629
vn 0.0000 -0.7855 0.6189
vn -1.0000 -0.0000 0.0000
vn 0.0000 1.0000 0.0000
vn 1.0000 -0.0000 0.0000
usemtl LightBrown.001
s 1
f 2//1 4//1 1//1
f 5//2 2//2 1//2
f 8//3 10//3 7//3
f 10//4 12//4 7//4
f 14//5 16//5 13//5
f 13//6 11//6 14//6
f 16//7 18//7 17//7
f 18//8 5//8 17//8
f 20//8 18//8 19//8
f 18//7 21//7 19//7
f 21//5 14//5 22//5
f 22//6 11//6 23//6
f 23//4 10//4 24//4
f 24//3 9//3 25//3
f 26//1 3//1 2//1
f 2//2 20//2 26//2
f 29//1 31//1 28//1
f 31//2 33//2 28//2
f 35//3 37//3 34//3
f 38//4 35//4 34//4
f 40//5 42//5 43//5
f 40//6 39//6 38//6
f 44//7 42//7 41//7
f 33//8 45//8 44//8
f 45//8 20//8 19//8
f 21//7 45//7 19//7
f 43//5 21//5 22//5
f 22//6 39//6 43//6
f 35//4 23//4 24//4
f 25//3 35//3 24//3
f 31//1 27//1 26//1
f 20//2 31//2 26//2
f 4//9 7//9 1//9
f 27//10 9//10 3//10
f 29//11 34//11 37//11
f 30//10 37//10 36//10
f 27//10 36//10 25//10
f 8//10 3//10 9//10
f 7//9 5//9 1//9
f 5//9 13//9 17//9
f 17//9 13//9 16//9
f 34//11 33//11 38//11
f 33//11 40//11 38//11
f 40//11 44//11 41//11
f 2//1 3//1 4//1
f 5//2 6//2 2//2
f 8//3 9//3 10//3
f 10//4 11//4 12//4
f 14//5 15//5 16//5
f 13//6 12//6 11//6
f 16//7 15//7 18//7
f 18//8 6//8 5//8
f 20//8 6//8 18//8
f 18//7 15//7 21//7
f 21//5 15//5 14//5
f 22//6 14//6 11//6
f 23//4 11//4 10//4
f 24//3 10//3 9//3
f 26//1 27//1 3//1
f 2//2 6//2 20//2
f 29//1 30//1 31//1
f 31//2 32//2 33//2
f 35//3 36//3 37//3
f 38//4 39//4 35//4
f 40//5 41//5 42//5
f 40//6 43//6 39//6
f 44//7 45//7 42//7
f 33//8 32//8 45//8
f 45//8 32//8 20//8
f 21//7 42//7 45//7
f 43//5 42//5 21//5
f 22//6 23//6 39//6
f 35//4 39//4 23//4
f 25//3 36//3 35//3
f 31//1 30//1 27//1
f 20//2 32//2 31//2
f 4//9 8//9 7//9
f 27//10 25//10 9//10
f 29//11 28//11 34//11
f 30//10 29//10 37//10
f 27//10 30//10 36//10
f 8//10 4//10 3//10
f 7//9 12//9 5//9
f 5//9 12//9 13//9
f 34//11 28//11 33//11
f 33//11 44//11 40//11
