# Blender v2.93.5 OBJ File: ''
# www.blender.org
mtllib PlatformBottomLeft.mtl
o Platform_BottomLeft_Cube.055
v 0.031825 0.301556 1.433893
v 0.031825 0.999998 1.562631
v -0.361690 0.999998 1.562631
v -0.361691 0.321679 1.388373
v -0.361691 -0.458376 1.090356
v 0.031825 -0.495029 1.126630
v 0.511407 -0.495028 1.126630
v 0.511407 0.301556 1.433893
v 0.511407 0.999998 1.562631
v -0.548218 0.382049 1.251812
v -0.564018 0.999998 1.388373
v -0.695131 0.999998 1.090356
v -0.666351 0.422295 0.981534
v -0.627476 -0.127520 0.834541
v -0.537683 -0.348417 0.981534
v -0.737833 0.382049 0.534865
v -0.773949 0.999998 0.594610
v -0.800284 0.999998 -0.000001
v -0.761911 0.341803 -0.000001
v -0.685538 -0.421723 -0.000001
v -0.666351 -0.348417 0.495034
v -0.737833 0.382049 -0.534866
v -0.773949 0.999998 -0.594611
v -0.695131 0.999998 -1.090357
v -0.666351 0.422295 -0.981535
v -0.627476 -0.127520 -0.834542
v -0.666351 -0.348417 -0.495035
v -0.548218 0.382049 -1.251813
v -0.564018 0.999998 -1.388374
v -0.361690 0.999998 -1.562632
v -0.361691 0.321679 -1.388374
v -0.361691 -0.458376 -1.090357
v -0.537683 -0.348417 -0.981535
v 0.031825 0.301556 -1.433895
v 0.031825 0.999998 -1.562632
v 0.511407 0.999998 -1.562632
v 0.511407 0.301556 -1.433895
v 0.511407 -0.495028 -1.126631
v 0.031825 -0.495029 -1.126632
v 0.999999 0.301556 1.433893
v 0.999999 0.999998 1.562631
v 0.999999 -0.495029 1.126630
v -0.548218 -0.714561 -0.534866
v -0.361691 -0.852550 -0.594611
v -0.361691 -0.953165 -0.000001
v -0.558752 -0.806554 -0.000001
v 0.031825 -0.898546 -0.614527
v 0.031825 -0.999998 -0.000001
v 0.511407 -0.898546 -0.614527
v 0.511407 -0.999998 -0.000001
v 0.031825 -0.898545 0.614525
v -0.361691 -0.852550 0.594610
v 0.511407 -0.898546 0.614525
v -0.548218 -0.714561 0.534865
v 0.999999 0.301556 -1.433895
v 0.999999 -0.495029 -1.126632
v 0.999999 0.999998 -1.562632
v 0.999999 -0.898545 -0.614527
v 0.999999 -0.999998 -0.000001
v 0.999999 -0.898546 0.614525
vn -0.0618 -0.2145 0.9748
vn -0.0619 -0.2145 0.9748
vn -0.1220 -0.3557 0.9266
vn -0.1219 -0.3557 0.9266
vn 0.0000 -0.3599 0.9330
vn 0.0000 -0.1813 0.9834
vn -0.6309 -0.1882 0.7527
vn -0.9127 -0.1145 0.3922
vn -0.9194 -0.1535 0.3621
vn -0.6249 -0.2787 0.7293
vn -0.6245 -0.2789 0.7295
vn -0.6248 -0.2787 0.7294
vn -0.9971 -0.0602 0.0469
vn -0.9971 -0.0605 0.0465
vn -0.9971 -0.0604 0.0466
vn -0.9936 -0.0996 0.0529
vn -0.9936 -0.0997 0.0529
vn -0.9936 -0.0998 0.0526
vn -0.9786 -0.1097 0.1738
vn -0.9841 -0.0758 0.1605
vn -0.9842 -0.0761 0.1600
vn -0.9842 -0.0760 0.1602
vn -0.9971 -0.0602 -0.0469
vn -0.9971 -0.0603 -0.0467
vn -0.9971 -0.0604 -0.0467
vn -0.9842 -0.0761 -0.1601
vn -0.9841 -0.0759 -0.1604
vn -0.9842 -0.0760 -0.1602
vn -0.9786 -0.1097 -0.1738
vn -0.9936 -0.0997 -0.0529
vn -0.9936 -0.0998 -0.0526
vn -0.9936 -0.0999 -0.0525
vn -0.6309 -0.1882 -0.7527
vn -0.6245 -0.2789 -0.7295
vn -0.6249 -0.2787 -0.7293
vn -0.6244 -0.2790 -0.7296
vn -0.9194 -0.1535 -0.3621
vn -0.9127 -0.1145 -0.3922
vn -0.0619 -0.2145 -0.9748
vn 0.0000 -0.1813 -0.9834
vn 0.0000 -0.3599 -0.9330
vn -0.1220 -0.3557 -0.9266
vn -0.6040 -0.7847 -0.1394
vn -0.9491 -0.3055 -0.0764
vn -0.9491 -0.3054 -0.0765
vn -0.9354 -0.2526 -0.2474
vn -0.6358 -0.5972 -0.4889
vn -0.1196 -0.9792 -0.1637
vn -0.1197 -0.9792 -0.1636
vn -0.1256 -0.7779 -0.6157
vn -0.1257 -0.7779 -0.6157
vn 0.0000 -0.7855 -0.6189
vn 0.0000 -0.9866 -0.1629
vn -0.1197 -0.9792 0.1636
vn -0.1196 -0.9792 0.1637
vn -0.1196 -0.9792 0.1636
vn -0.0000 -0.9866 0.1629
vn -0.0000 -0.7855 0.6189
vn -0.1257 -0.7779 0.6157
vn -0.1256 -0.7779 0.6157
vn -0.6040 -0.7847 0.1394
vn -0.6039 -0.7847 0.1395
vn -0.6358 -0.5972 0.4889
vn -0.9354 -0.2526 0.2474
vn -0.9491 -0.3055 0.0764
vn -0.9491 -0.3054 0.0765
vn 0.0000 1.0000 0.0000
vn 1.0000 -0.0000 0.0000
vn -0.6246 -0.2788 0.7295
vn -0.9971 -0.0604 0.0467
vn -0.9936 -0.0997 0.0528
vn -0.9971 -0.0604 -0.0466
vn -0.9936 -0.0996 -0.0530
vn -0.6250 -0.2786 -0.7292
vn -0.0618 -0.2145 -0.9748
vn -0.1219 -0.3557 -0.9266
vn -0.6039 -0.7847 -0.1395
usemtl LightBrown
s 1
f 2//1 4//2 1//2
f 1//3 5//4 6//4
f 1//5 7//5 8//5
f 8//6 2//6 1//6
f 4//7 11//7 10//7
f 10//8 12//8 13//8
f 10//9 14//9 15//9
f 15//10 4//11 10//12
f 16//13 18//14 19//15
f 19//16 21//17 16//18
f 16//19 14//19 13//19
f 13//20 17//21 16//22
f 22//23 18//24 23//25
f 23//26 25//27 22//28
f 22//29 26//29 27//29
f 27//30 19//31 22//32
f 29//33 31//33 28//33
f 31//34 33//35 28//36
f 28//37 26//37 25//37
f 28//38 24//38 29//38
f 31//39 35//39 34//39
f 35//40 37//40 34//40
f 34//41 38//41 39//41
f 34//42 32//42 31//42
f 41//6 8//6 40//6
f 40//5 7//5 42//5
f 43//43 45//43 46//43
f 43//44 20//45 27//44
f 27//46 33//46 43//46
f 43//47 32//47 44//47
f 48//48 44//49 47//49
f 44//50 39//51 47//50
f 47//52 38//52 49//52
f 49//53 48//53 47//53
f 52//54 48//55 51//56
f 48//57 53//57 51//57
f 53//58 6//58 51//58
f 6//59 52//60 51//60
f 54//61 45//62 52//62
f 54//63 5//63 15//63
f 15//64 21//64 54//64
f 54//65 20//66 46//65
f 55//41 38//41 37//41
f 37//40 57//40 55//40
f 59//53 49//53 58//53
f 58//52 38//52 56//52
f 42//58 53//58 60//58
f 53//57 59//57 60//57
f 36//67 35//67 23//67
f 40//68 57//68 41//68
f 42//68 55//68 40//68
f 42//68 58//68 56//68
f 60//68 59//68 58//68
f 2//1 3//1 4//2
f 1//3 4//3 5//4
f 1//5 6//5 7//5
f 8//6 9//6 2//6
f 4//7 3//7 11//7
f 10//8 11//8 12//8
f 10//9 13//9 14//9
f 15//10 5//69 4//11
f 16//13 17//70 18//14
f 19//16 20//71 21//17
f 16//19 21//19 14//19
f 13//20 12//22 17//21
f 22//23 19//72 18//24
f 23//26 24//28 25//27
f 22//29 25//29 26//29
f 27//30 20//73 19//31
f 29//33 30//33 31//33
f 31//34 32//74 33//35
f 28//37 33//37 26//37
f 28//38 25//38 24//38
f 31//39 30//75 35//39
f 35//40 36//40 37//40
f 34//41 37//41 38//41
f 34//42 39//76 32//42
f 41//6 9//6 8//6
f 40//5 8//5 7//5
f 43//43 44//77 45//43
f 43//44 46//44 20//45
f 27//46 26//46 33//46
f 43//47 33//47 32//47
f 48//48 45//48 44//49
f 44//50 32//51 39//51
f 47//52 39//52 38//52
f 49//53 50//53 48//53
f 52//54 45//55 48//55
f 48//57 50//57 53//57
f 53//58 7//58 6//58
f 6//59 5//59 52//60
f 54//61 46//62 45//62
f 54//63 52//63 5//63
f 15//64 14//64 21//64
f 54//65 21//65 20//66
f 55//41 56//41 38//41
f 37//40 36//40 57//40
f 59//53 50//53 49//53
f 58//52 49//52 38//52
f 42//58 7//58 53//58
f 53//57 50//57 59//57
f 11//67 3//67 2//67
f 9//67 41//67 18//67
f 41//67 57//67 18//67
f 11//67 2//67 12//67
f 2//67 9//67 17//67
f 17//67 12//67 2//67
f 23//67 18//67 36//67
f 18//67 17//67 9//67
f 36//67 18//67 57//67
f 29//67 24//67 35//67
f 24//67 23//67 35//67
f 35//67 30//67 29//67
f 40//68 55//68 57//68
f 42//68 56//68 55//68
f 42//68 60//68 58//68
