# Blender v2.93.5 OBJ File: ''
# www.blender.org
mtllib PlatformTopRight.mtl
o Platform_TopRight_Cube.051
v 0.827402 0.142918 0.634615
v 0.796344 0.057705 0.619548
v 0.823519 0.007039 0.000000
v 0.854842 0.085014 0.000000
v 0.745085 0.229775 1.163460
v 0.714817 0.133704 1.135838
v 0.827402 0.142918 -0.634615
v 0.796344 0.057705 -0.619548
v 0.714817 0.133704 -1.135839
v 0.745085 0.229775 -1.163460
v -0.031823 0.258727 1.692305
v -0.031823 0.159038 1.652128
v 0.361693 0.159038 1.600500
v 0.361693 0.258727 1.639421
v -0.511404 0.228493 1.692305
v -0.511404 0.132583 1.652128
v 0.607889 0.258727 1.480767
v 0.578938 0.159038 1.445613
v -0.031823 -0.130839 1.638736
v -0.511404 -0.145956 1.638736
v -0.511406 -0.999998 1.562632
v -0.031824 -0.999998 1.562632
v 0.569288 -0.130839 1.433894
v 0.361693 -0.130839 1.587526
v 0.361691 -0.999998 1.562632
v 0.564020 -0.999998 1.388374
v 0.704727 -0.145315 1.126631
v 0.695132 -0.999998 1.090357
v 0.813079 -0.217696 -0.000000
v 0.785990 -0.188744 0.614526
v 0.773950 -0.999998 0.594611
v 0.800286 -0.999998 -0.000000
v 0.785990 -0.188744 -0.614526
v 0.773950 -0.999998 -0.594611
v 0.704727 -0.145315 -1.126631
v 0.695132 -0.999998 -1.090357
v 0.361693 -0.130839 -1.587526
v 0.569288 -0.130839 -1.433895
v 0.564020 -0.999998 -1.388374
v 0.361691 -0.999998 -1.562632
v -0.031823 -0.130839 -1.638736
v -0.031824 -0.999998 -1.562632
v 0.578938 0.159038 -1.445613
v 0.361693 0.159038 -1.600500
v -0.511404 -0.145956 -1.638736
v -0.511405 -0.999998 -1.562632
v -0.031823 0.159038 -1.652128
v -0.511404 0.132583 -1.652128
v -0.999997 -0.191306 1.638736
v -0.999999 -0.999998 1.562631
v -0.999997 0.053221 1.652128
v -0.999997 0.137793 1.692305
v 0.607889 0.258727 -1.480768
v 0.361693 0.258727 -1.639420
v -0.031823 0.258727 -1.692305
v -0.511404 0.228493 -1.692305
v -0.999997 -0.191306 -1.638736
v -0.999999 -0.999998 -1.562632
v -0.999997 0.053221 -1.652128
v -0.999997 0.137793 -1.692305
v 0.886165 0.135725 0.000000
v 0.858462 0.186391 0.649681
v 0.775353 0.262391 1.191082
v 0.819409 0.655999 0.569834
v 0.856463 0.474767 0.633486
v 0.883482 0.471034 0.000000
v 0.844112 0.670019 0.000000
v 0.746073 0.641979 1.045706
v 0.775600 0.482119 1.161643
v 0.746073 0.813227 0.527400
v 0.706189 0.761486 0.889103
v 0.765757 0.838764 0.000000
v 0.819409 0.655999 -0.569834
v 0.856463 0.474767 -0.633486
v 0.746073 0.813227 -0.527400
v 0.746073 0.641979 -1.045706
v 0.706189 0.761486 -0.889103
v 0.775600 0.482119 -1.161643
v 0.858462 0.186391 -0.649681
v 0.775353 0.262391 -1.191082
v 0.361693 0.287724 1.678342
v -0.031823 0.287724 1.732482
v -0.511404 0.261269 1.732482
v -0.031823 0.684040 1.527640
v -0.031823 0.496253 1.691316
v 0.361693 0.494501 1.638273
v 0.361693 0.677029 1.479144
v -0.511404 0.684039 1.527640
v -0.511404 0.492474 1.691315
v -0.031823 0.864301 1.200289
v -0.511404 0.864300 1.200289
v 0.361693 0.851532 1.161643
v 0.624874 0.655999 1.333654
v 0.641085 0.489243 1.479144
v 0.614067 0.813227 1.045706
v 0.636839 0.287724 1.515922
v -0.031823 0.972458 -0.654703
v -0.031823 0.999998 0.000000
v 0.361692 0.999998 0.000000
v 0.361693 0.956435 -0.633486
v -0.511404 0.972458 -0.654703
v -0.511404 0.999998 0.000000
v -0.031823 0.864301 -1.200289
v -0.511404 0.864300 -1.200289
v 0.361693 0.851532 -1.161643
v 0.624874 0.908365 -0.569834
v 0.635681 0.940412 0.000000
v 0.614067 0.813227 -1.045706
v 0.624874 0.908365 0.569834
v 0.361693 0.956435 0.633486
v -0.031823 0.972458 0.654703
v -0.511404 0.972458 0.654703
v -0.999997 0.972458 -0.654703
v -0.999997 0.864301 -1.200289
v -0.999997 0.999998 0.000000
v -0.999997 0.972458 0.654703
v -0.999997 0.864301 1.200289
v -0.999997 0.684040 1.527640
v -0.999997 0.481136 1.691316
v -0.999997 0.181907 1.732482
v 0.361693 0.287724 -1.678342
v 0.636839 0.287724 -1.515922
v 0.624874 0.655999 -1.333654
v 0.641085 0.489243 -1.479144
v 0.361693 0.494501 -1.638273
v 0.361693 0.677029 -1.479144
v -0.031823 0.684040 -1.527641
v -0.031823 0.496253 -1.691316
v -0.511404 0.684039 -1.527640
v -0.511404 0.492474 -1.691315
v -0.031823 0.287724 -1.732482
v -0.511404 0.261269 -1.732482
v -0.999997 0.181906 -1.732482
v -0.999997 0.684040 -1.527640
v -0.999997 0.481136 -1.691315
v -0.999997 0.305057 -1.745874
v -0.511404 0.350407 -1.745874
v -0.031823 0.365523 -1.745874
v 0.361693 0.365523 -1.691315
v 0.646489 0.365523 -1.527641
v 0.785443 0.351047 -1.200289
v -0.999997 0.305057 1.745874
v -0.511404 0.350407 1.745874
v 0.646489 0.365523 1.527640
v 0.361693 0.365523 1.691316
v 0.785443 0.351047 1.200289
v -0.031823 0.365523 1.745874
v 0.868815 0.307619 -0.654703
v 0.896605 0.278667 0.000000
v 0.868815 0.307619 0.654703
vn 0.9294 -0.3619 0.0718
vn 0.9132 -0.3557 0.1986
vn 0.9133 -0.3557 0.1986
vn 0.9133 -0.3557 -0.1986
vn 0.9294 -0.3619 -0.0718
vn 0.1225 -0.3660 0.9225
vn 0.0224 -0.3799 0.9247
vn 0.0225 -0.3799 0.9248
vn 0.8355 -0.3801 0.3967
vn 0.8356 -0.3799 0.3968
vn 0.8356 -0.3800 0.3967
vn 0.5222 -0.3626 0.7719
vn 0.0028 -0.0895 0.9960
vn 0.0013 -0.0880 0.9961
vn 0.0014 -0.0880 0.9961
vn 0.6243 -0.0335 0.7805
vn 0.0022 -0.0468 0.9989
vn 0.0061 -0.0512 0.9987
vn 0.0018 -0.0475 0.9989
vn 0.1295 -0.0452 0.9905
vn 0.1293 -0.0449 0.9906
vn 0.1294 -0.0450 0.9906
vn 0.9146 -0.0270 0.4035
vn 0.9146 -0.0270 0.4034
vn 0.9147 -0.0271 0.4033
vn 0.5869 -0.0441 0.8085
vn 0.5871 -0.0442 0.8083
vn 0.5870 -0.0442 0.8084
vn 0.9133 -0.0466 0.4046
vn 0.9134 -0.0468 0.4045
vn 0.9989 -0.0161 0.0446
vn 0.9989 -0.0162 0.0445
vn 0.9989 -0.0160 0.0446
vn 0.9873 -0.0180 0.1578
vn 0.9874 -0.0183 0.1574
vn 0.9873 -0.0182 0.1576
vn 0.9989 -0.0161 -0.0446
vn 0.9989 -0.0162 -0.0445
vn 0.9989 -0.0162 -0.0444
vn 0.9860 -0.0428 0.1610
vn 0.9860 -0.0427 0.1610
vn 0.9979 -0.0445 0.0468
vn 0.9873 -0.0180 -0.1578
vn 0.9874 -0.0183 -0.1574
vn 0.9979 -0.0445 -0.0468
vn 0.9979 -0.0446 -0.0467
vn 0.9860 -0.0426 -0.1611
vn 0.9860 -0.0428 -0.1610
vn 0.9860 -0.0427 -0.1610
vn 0.6243 -0.0335 -0.7805
vn 0.9146 -0.0270 -0.4035
vn 0.9146 -0.0270 -0.4034
vn 0.0648 -0.0579 -0.9962
vn 0.9133 -0.0466 -0.4046
vn 0.9133 -0.0464 -0.4047
vn 0.5871 -0.0442 -0.8083
vn 0.5870 -0.0441 -0.8084
vn 0.5870 -0.0442 -0.8084
vn 0.0028 -0.0895 -0.9960
vn 0.0013 -0.0880 -0.9961
vn 0.0028 -0.0896 -0.9960
vn 0.1295 -0.0452 -0.9905
vn 0.1293 -0.0449 -0.9906
vn 0.1295 -0.0451 -0.9906
vn 0.0022 -0.0468 -0.9989
vn 0.0061 -0.0512 -0.9987
vn 0.0021 -0.0469 -0.9989
vn 0.0042 -0.0912 0.9958
vn 0.0027 -0.0896 0.9960
vn 0.0065 -0.0511 0.9987
vn 0.0706 -0.4057 0.9113
vn 0.5222 -0.3626 -0.7719
vn 0.8356 -0.3799 -0.3968
vn 0.8356 -0.3800 -0.3967
vn 0.0225 -0.3799 -0.9248
vn 0.0224 -0.3799 -0.9247
vn 0.1225 -0.3660 -0.9225
vn 0.0042 -0.0912 -0.9958
vn 0.0065 -0.0511 -0.9987
vn 0.0019 -0.0475 -0.9989
vn 0.0706 -0.4057 -0.9113
vn 0.0648 -0.0579 0.9962
vn -1.0000 0.0000 0.0000
vn 0.0000 -1.0000 -0.0000
vn 0.8356 -0.3800 0.3968
vn 0.0021 -0.0469 0.9989
vn 0.1295 -0.0451 0.9906
vn 0.9133 -0.0464 0.4047
vn 0.9989 -0.0161 0.0445
vn 0.9873 -0.0181 0.1577
vn 0.9989 -0.0160 -0.0446
vn 0.9860 -0.0427 0.1611
vn 0.9979 -0.0446 0.0467
vn 0.9873 -0.0182 -0.1576
vn 0.9134 -0.0468 -0.4045
vn 0.0014 -0.0880 -0.9961
vn 0.1294 -0.0450 -0.9906
vn 0.8356 -0.3800 -0.3968
vn 0.8247 -0.5595 0.0827
vn 0.6994 -0.6826 0.2120
vn 0.9780 0.2039 0.0438
vn 0.9531 0.2640 0.1481
vn 0.8706 0.4672 0.1544
vn 0.9028 0.4269 0.0519
vn 0.9780 0.2039 -0.0438
vn 0.9028 0.4269 -0.0519
vn 0.8706 0.4672 -0.1544
vn 0.9531 0.2640 -0.1481
vn 0.8247 -0.5595 -0.0827
vn 0.6994 -0.6826 -0.2120
vn 0.0801 -0.8039 0.5894
vn 0.0468 -0.7919 0.6088
vn 0.0468 -0.7920 0.6088
vn 0.1040 0.6535 0.7497
vn 0.1040 0.6536 0.7497
vn -0.0026 0.6533 0.7571
vn -0.0025 0.6533 0.7571
vn -0.0000 0.8760 0.4824
vn 0.0752 0.8737 0.4806
vn 0.0752 0.8737 0.4807
vn 0.4101 0.6102 0.6778
vn 0.3240 0.8321 0.4501
vn 0.3240 0.8321 0.4502
vn 0.7607 0.5864 0.2783
vn 0.8509 0.3957 0.3456
vn 0.8509 0.3958 0.3455
vn 0.3122 -0.8034 0.5070
vn 0.5231 -0.8006 0.2923
vn 0.0218 0.9982 -0.0551
vn 0.0000 0.9991 -0.0420
vn -0.0000 0.9809 -0.1945
vn 0.0506 0.9796 -0.1944
vn 0.0507 0.9796 -0.1943
vn 0.2033 0.9771 -0.0632
vn 0.2271 0.9546 -0.1926
vn 0.2270 0.9546 -0.1926
vn 0.6607 0.7316 -0.1683
vn 0.6607 0.7315 -0.1683
vn 0.6216 0.7812 -0.0583
vn 0.6216 0.7811 -0.0583
vn 0.2033 0.9771 0.0632
vn 0.6216 0.7812 0.0583
vn 0.6607 0.7316 0.1683
vn 0.6607 0.7315 0.1683
vn 0.2271 0.9546 0.1926
vn 0.2270 0.9546 0.1927
vn 0.0218 0.9982 0.0551
vn 0.0506 0.9796 0.1944
vn 0.0507 0.9796 0.1943
vn 0.0504 0.9796 0.1946
vn -0.0000 0.9809 0.1945
vn 0.0000 0.9991 0.0420
vn -0.0074 0.6386 0.7695
vn 0.1245 -0.7169 0.6860
vn 0.1248 -0.7169 0.6860
vn 0.3122 -0.8034 -0.5070
vn 0.5231 -0.8006 -0.2923
vn 0.4101 0.6102 -0.6778
vn 0.8509 0.3957 -0.3456
vn 0.8509 0.3958 -0.3455
vn 0.7607 0.5864 -0.2783
vn 0.3240 0.8321 -0.4501
vn 0.3240 0.8321 -0.4502
vn 0.1040 0.6535 -0.7497
vn 0.1040 0.6535 -0.7498
vn 0.0752 0.8737 -0.4807
vn 0.0752 0.8737 -0.4806
vn -0.0000 0.8760 -0.4824
vn -0.0026 0.6533 -0.7571
vn 0.0801 -0.8039 -0.5894
vn 0.0468 -0.7919 -0.6088
vn 0.1248 -0.7169 -0.6859
vn 0.1248 -0.7169 -0.6860
vn -0.0074 0.6386 -0.7695
vn 0.0160 -0.1252 -0.9920
vn -0.0188 0.3244 -0.9457
vn 0.1262 0.3797 -0.9164
vn 0.1261 0.3796 -0.9165
vn 0.1262 0.3798 -0.9164
vn -0.0073 0.3714 -0.9284
vn -0.0073 0.3714 -0.9285
vn 0.0069 -0.1584 -0.9873
vn 0.1349 -0.1655 -0.9769
vn 0.1349 -0.1656 -0.9769
vn 0.4698 0.3378 -0.8156
vn 0.4698 0.3377 -0.8156
vn 0.4963 -0.1660 -0.8521
vn 0.4963 -0.1660 -0.8522
vn 0.9053 -0.1570 -0.3947
vn 0.9072 0.1838 -0.3785
vn 0.9072 0.1838 -0.3786
vn -0.0188 0.3244 0.9457
vn 0.0160 -0.1252 0.9920
vn 0.0160 -0.1251 0.9920
vn 0.4698 0.3378 0.8156
vn 0.4698 0.3377 0.8156
vn 0.9072 0.1838 0.3786
vn 0.9072 0.1838 0.3785
vn 0.9053 -0.1570 0.3947
vn 0.4963 -0.1660 0.8521
vn 0.1261 0.3796 0.9165
vn 0.1262 0.3797 0.9164
vn 0.1262 0.3797 0.9165
vn 0.1349 -0.1656 0.9769
vn 0.1349 -0.1655 0.9769
vn 0.0069 -0.1584 0.9873
vn -0.0073 0.3714 0.9284
vn -0.0073 0.3714 0.9285
vn 0.9965 0.0730 -0.0405
vn 0.9840 0.1024 -0.1457
vn 0.9840 0.1025 -0.1457
vn 0.9810 -0.1065 -0.1620
vn 0.9957 -0.0793 -0.0472
vn 0.9965 0.0730 0.0405
vn 0.9957 -0.0793 0.0472
vn 0.9810 -0.1065 0.1620
vn 0.9840 0.1024 0.1457
vn 0.9840 0.1025 0.1457
vn 0.1040 0.6535 0.7498
vn 0.0751 0.8736 0.4807
vn 0.4101 0.6102 0.6779
vn 0.0504 0.9796 -0.1946
vn 0.2270 0.9546 -0.1927
vn 0.4101 0.6102 -0.6779
vn 0.1040 0.6536 -0.7497
vn 0.0468 -0.7920 -0.6088
vn 0.0160 -0.1251 -0.9920
vn 0.1261 0.3797 -0.9165
vn 0.9072 0.1837 -0.3786
vn 0.9072 0.1837 0.3786
vn 0.1261 0.3797 0.9165
vn 0.9965 0.0730 -0.0406
vn 0.9957 -0.0792 -0.0472
vn 0.9965 0.0730 0.0406
vn 0.9957 -0.0792 0.0472
usemtl LightBrown.005
s 1
f 2//1 4//1 1//1
f 1//2 6//3 2//3
f 7//4 9//4 10//4
f 4//5 8//5 7//5
f 12//6 14//6 11//6
f 15//7 12//8 11//8
f 18//9 5//10 17//11
f 17//12 13//12 18//12
f 20//13 22//14 19//15
f 23//16 25//16 26//16
f 19//17 16//18 20//19
f 19//20 13//21 12//22
f 27//23 26//24 28//25
f 18//26 24//27 23//28
f 23//29 6//29 18//30
f 29//31 31//32 32//33
f 30//34 28//35 31//36
f 29//37 34//38 33//39
f 2//40 27//41 30//41
f 30//42 3//42 2//42
f 33//43 36//44 35//43
f 33//45 3//45 29//46
f 35//47 8//48 33//49
f 38//50 40//50 37//50
f 35//51 39//52 38//51
f 37//53 42//53 41//53
f 38//54 9//54 35//55
f 37//56 43//57 38//58
f 45//59 42//60 46//61
f 41//62 44//63 37//64
f 41//65 48//66 47//67
f 49//68 21//69 20//13
f 20//19 51//70 49//70
f 52//71 16//71 15//71
f 53//72 44//72 54//72
f 10//73 43//74 53//74
f 47//75 56//76 55//75
f 54//77 47//77 55//77
f 57//78 46//61 58//78
f 59//79 45//80 57//79
f 60//81 48//81 59//81
f 24//82 22//82 25//82
f 57//83 50//83 49//83
f 36//84 34//84 42//84
f 51//83 60//83 59//83
f 49//83 59//83 57//83
f 2//1 3//1 4//1
f 1//2 5//3 6//3
f 7//4 8//4 9//4
f 4//5 3//5 8//5
f 12//6 13//6 14//6
f 15//7 16//7 12//8
f 18//9 6//85 5//10
f 17//12 14//12 13//12
f 20//13 21//69 22//14
f 23//16 24//16 25//16
f 19//17 12//86 16//18
f 19//20 24//87 13//21
f 27//23 23//23 26//24
f 18//26 13//28 24//27
f 23//29 27//88 6//29
f 29//31 30//89 31//32
f 30//34 27//90 28//35
f 29//37 32//91 34//38
f 2//40 6//92 27//41
f 30//42 29//93 3//42
f 33//43 34//94 36//44
f 33//45 8//45 3//45
f 35//47 9//49 8//48
f 38//50 39//50 40//50
f 35//51 36//52 39//52
f 37//53 40//53 42//53
f 38//54 43//95 9//54
f 37//56 44//58 43//57
f 45//59 41//96 42//60
f 41//62 47//97 44//63
f 41//65 45//80 48//66
f 49//68 50//68 21//69
f 20//19 16//18 51//70
f 52//71 51//71 16//71
f 53//72 43//72 44//72
f 10//73 9//98 43//74
f 47//75 48//76 56//76
f 54//77 44//77 47//77
f 57//78 45//59 46//61
f 59//79 48//66 45//80
f 60//81 56//81 48//81
f 24//82 19//82 22//82
f 57//83 58//83 50//83
f 26//84 25//84 22//84
f 22//84 21//84 31//84
f 21//84 50//84 32//84
f 31//84 21//84 32//84
f 50//84 58//84 32//84
f 58//84 46//84 32//84
f 42//84 40//84 39//84
f 46//84 42//84 34//84
f 26//84 22//84 28//84
f 31//84 28//84 22//84
f 34//84 32//84 46//84
f 39//84 36//84 42//84
f 51//83 52//83 60//83
f 49//83 51//83 59//83
usemtl Green.003
f 1//99 61//99 62//99
f 62//100 5//100 1//100
f 64//101 66//101 67//101
f 68//102 65//102 64//102
f 64//103 71//103 68//103
f 67//104 70//104 64//104
f 73//105 66//105 74//105
f 75//106 67//106 73//106
f 73//107 77//107 75//107
f 74//108 76//108 73//108
f 7//109 61//109 4//109
f 10//110 79//110 7//110
f 11//111 81//111 82//111
f 11//112 83//112 15//113
f 84//114 86//114 87//115
f 88//116 85//117 84//116
f 84//118 91//118 88//118
f 87//119 90//120 84//120
f 87//121 94//121 93//121
f 93//122 92//123 87//122
f 68//124 95//124 93//124
f 93//125 69//126 68//126
f 96//127 14//127 17//127
f 17//128 63//128 96//128
f 98//129 100//129 97//129
f 101//130 98//130 97//130
f 103//131 101//131 97//131
f 97//132 105//133 103//132
f 106//134 99//134 107//134
f 108//135 100//135 106//136
f 106//137 77//138 108//138
f 107//139 75//139 106//140
f 109//141 99//141 110//141
f 70//142 107//142 109//142
f 109//143 71//144 70//144
f 110//145 95//145 109//146
f 110//147 98//147 111//147
f 111//148 92//149 110//150
f 112//151 90//151 111//151
f 98//152 112//152 111//152
f 101//131 114//131 113//131
f 115//130 101//130 113//130
f 112//152 115//152 116//152
f 117//151 112//151 116//151
f 118//118 91//118 117//118
f 118//153 89//153 88//153
f 15//154 120//155 52//155
f 54//156 122//156 53//156
f 53//157 80//157 10//157
f 124//158 126//158 123//158
f 123//159 78//160 124//159
f 108//161 76//161 123//161
f 123//162 105//163 108//162
f 127//164 125//164 128//165
f 103//166 126//167 127//166
f 129//168 103//168 127//168
f 128//169 129//169 127//169
f 55//170 121//170 54//170
f 55//171 132//171 131//171
f 133//172 56//173 60//173
f 134//174 130//174 135//174
f 134//168 104//168 129//168
f 136//175 132//175 133//175
f 135//176 137//176 136//176
f 128//177 139//178 138//179
f 138//180 130//181 128//181
f 131//182 137//182 138//182
f 139//183 131//184 138//183
f 140//185 125//186 124//185
f 140//187 121//188 139//188
f 141//189 122//189 140//189
f 124//190 141//191 140//191
f 143//192 119//192 142//192
f 142//193 83//193 143//194
f 144//195 86//196 145//196
f 146//197 94//198 144//198
f 96//199 146//199 144//199
f 144//200 81//200 96//200
f 145//201 85//202 147//203
f 82//204 145//204 147//205
f 143//206 82//206 147//206
f 147//207 89//208 143//208
f 74//209 149//209 148//209
f 148//210 78//211 74//211
f 148//212 80//212 141//212
f 149//213 79//213 148//213
f 149//214 65//214 150//214
f 62//215 149//215 150//215
f 150//216 63//216 62//216
f 150//217 69//218 146//218
f 60//83 120//83 133//83
f 120//83 136//83 133//83
f 142//83 135//83 136//83
f 135//83 118//83 134//83
f 118//83 114//83 134//83
f 117//83 113//83 114//83
f 113//83 116//83 115//83
f 1//99 4//99 61//99
f 62//100 63//100 5//100
f 64//101 65//101 66//101
f 68//102 69//102 65//102
f 64//103 70//103 71//103
f 67//104 72//104 70//104
f 73//105 67//105 66//105
f 75//106 72//106 67//106
f 73//107 76//107 77//107
f 74//108 78//108 76//108
f 7//109 79//109 61//109
f 10//110 80//110 79//110
f 11//111 14//111 81//111
f 11//112 82//112 83//112
f 84//114 85//219 86//114
f 88//116 89//116 85//117
f 84//118 90//118 91//118
f 87//119 92//220 90//120
f 87//121 86//221 94//121
f 93//122 95//122 92//123
f 68//124 71//124 95//124
f 93//125 94//125 69//126
f 96//127 81//127 14//127
f 17//128 5//128 63//128
f 98//129 99//129 100//129
f 101//130 102//130 98//130
f 103//131 104//131 101//131
f 97//132 100//222 105//133
f 106//134 100//134 99//134
f 108//135 105//223 100//135
f 106//137 75//138 77//138
f 107//139 72//139 75//139
f 109//141 107//141 99//141
f 70//142 72//142 107//142
f 109//143 95//144 71//144
f 110//145 92//146 95//145
f 110//147 99//147 98//147
f 111//148 90//148 92//149
f 112//151 91//151 90//151
f 98//152 102//152 112//152
f 101//131 104//131 114//131
f 115//130 102//130 101//130
f 112//152 102//152 115//152
f 117//151 91//151 112//151
f 118//118 88//118 91//118
f 118//153 119//153 89//153
f 15//154 83//155 120//155
f 54//156 121//156 122//156
f 53//157 122//157 80//157
f 124//158 125//224 126//158
f 123//159 76//160 78//160
f 108//161 77//161 76//161
f 123//162 126//162 105//163
f 127//164 126//225 125//164
f 103//166 105//166 126//167
f 129//168 104//168 103//168
f 128//169 130//169 129//169
f 55//170 131//170 121//170
f 55//171 56//226 132//171
f 133//172 132//172 56//173
f 134//174 129//174 130//174
f 134//168 114//168 104//168
f 136//175 137//227 132//175
f 135//176 130//176 137//176
f 128//177 125//228 139//178
f 138//180 137//181 130//181
f 131//182 132//182 137//182
f 139//183 121//183 131//184
f 140//185 139//186 125//186
f 140//187 122//187 121//188
f 141//189 80//189 122//189
f 124//190 78//229 141//191
f 143//192 89//192 119//192
f 142//193 120//193 83//193
f 144//195 94//195 86//196
f 146//197 69//230 94//198
f 96//199 63//199 146//199
f 144//200 145//200 81//200
f 145//201 86//231 85//202
f 82//204 81//205 145//204
f 143//206 83//206 82//206
f 147//207 85//207 89//208
f 74//209 66//232 149//209
f 148//210 141//211 78//211
f 148//212 79//212 80//212
f 149//213 61//233 79//213
f 149//214 66//234 65//214
f 62//215 61//235 149//215
f 150//216 146//216 63//216
f 150//217 65//218 69//218
f 60//83 52//83 120//83
f 120//83 142//83 136//83
f 142//83 119//83 135//83
f 135//83 119//83 118//83
f 118//83 117//83 114//83
f 117//83 116//83 113//83
