# Blender v2.93.5 OBJ File: ''
# www.blender.org
mtllib PlatformTopMiddle.mtl
o Platform_TopMiddle_Cube.000
v -0.999999 -0.191306 1.638737
v -0.999999 -0.999998 1.562632
v -0.506900 -0.999998 1.562632
v -0.506900 -0.224649 1.638737
v -0.506900 0.015257 1.652129
v -0.999999 0.053221 1.652129
v -0.999999 0.137793 1.692305
v -0.506900 0.091493 1.692305
v -0.506900 -0.999998 -1.562632
v -0.999999 -0.999998 -1.562632
v -0.999999 -0.191306 -1.638737
v -0.506900 -0.224649 -1.638737
v -0.999999 0.053221 -1.652129
v -0.506900 0.015257 -1.652129
v -0.999999 0.137793 -1.692305
v -0.506900 0.091494 -1.692305
v 0.000000 0.112915 -1.692305
v 0.000000 0.031453 -1.652129
v 0.000000 -0.203745 -1.638737
v 0.000000 -0.999998 -1.562632
v 0.000000 0.112915 1.692305
v 0.000000 0.031453 1.652129
v 0.000000 -0.999998 1.562632
v 0.000000 -0.203745 1.638737
v 0.999999 -0.191306 1.638737
v 0.506901 -0.224649 1.638737
v 0.506900 -0.999998 1.562632
v 0.999999 -0.999998 1.562632
v 0.999999 0.053221 1.652129
v 0.506901 0.015257 1.652129
v 0.999999 0.137793 1.692305
v 0.506901 0.091493 1.692305
v 0.506901 -0.999998 -1.562632
v 0.506901 -0.224649 -1.638737
v 0.999999 -0.191306 -1.638737
v 0.999999 -0.999998 -1.562632
v 0.506901 0.015257 -1.652129
v 0.999999 0.053221 -1.652129
v 0.999999 0.137793 -1.692305
v 0.506901 0.091494 -1.692305
v -0.999999 0.972458 -0.654703
v -0.999999 0.999998 0.000000
v -0.506901 0.999998 0.000000
v -0.506900 0.972458 -0.654703
v -0.506900 0.864301 -1.200289
v -0.999999 0.864301 -1.200289
v -0.999999 0.972458 0.654703
v -0.506900 0.972458 0.654703
v -0.999999 0.864301 1.200289
v -0.506900 0.864301 1.200289
v -0.999999 0.684040 1.527640
v -0.999999 0.481137 1.691316
v -0.506900 0.472801 1.691316
v -0.506900 0.684040 1.527640
v -0.506900 0.143942 1.732482
v -0.999999 0.181907 1.732482
v -0.999999 0.181906 -1.732482
v -0.506900 0.143942 -1.732482
v -0.999999 0.684040 -1.527641
v -0.506900 0.684040 -1.527641
v -0.506900 0.472801 -1.691316
v -0.999999 0.481137 -1.691316
v -0.999999 0.305057 -1.745875
v -0.506900 0.271714 -1.745875
v -0.999999 0.305057 1.745875
v -0.506900 0.271714 1.745875
v 0.000000 0.292618 1.745875
v 0.000000 0.478027 1.691316
v 0.000000 0.160138 1.732482
v 0.000000 0.292618 -1.745875
v 0.000000 0.160138 -1.732482
v 0.000000 0.478027 -1.691316
v 0.000000 0.684040 -1.527641
v 0.000000 0.864301 -1.200289
v 0.000000 0.684040 1.527640
v 0.000000 0.864301 1.200289
v 0.000000 0.972458 0.654703
v 0.000000 0.999998 0.000000
v 0.000000 0.972458 -0.654703
v 0.999999 0.972458 -0.654703
v 0.506901 0.972458 -0.654703
v 0.506901 0.999998 0.000000
v 0.999999 0.999998 0.000000
v 0.999999 0.864301 -1.200289
v 0.506901 0.864301 -1.200289
v 0.999999 0.972458 0.654703
v 0.506901 0.972458 0.654703
v 0.506901 0.864301 1.200289
v 0.999999 0.864301 1.200289
v 0.999999 0.684040 1.527640
v 0.506901 0.684040 1.527640
v 0.506901 0.472801 1.691316
v 0.999999 0.481137 1.691316
v 0.999999 0.181907 1.732482
v 0.506901 0.143942 1.732482
v 0.506901 0.143942 -1.732482
v 0.999999 0.181906 -1.732482
v 0.999999 0.684040 -1.527641
v 0.999999 0.481137 -1.691316
v 0.506901 0.472801 -1.691316
v 0.506901 0.684040 -1.527641
v 0.999999 0.305057 -1.745875
v 0.506901 0.271714 -1.745875
v 0.999999 0.305057 1.745875
v 0.506901 0.271714 1.745875
vn -0.0032 -0.0957 0.9954
vn -0.0007 -0.0959 0.9954
vn -0.0033 -0.0956 0.9954
vn -0.0041 -0.0550 0.9985
vn -0.0009 -0.0557 0.9984
vn -0.0382 -0.4467 0.8939
vn -0.0382 -0.4466 0.8939
vn -0.0032 -0.0957 -0.9954
vn -0.0007 -0.0959 -0.9954
vn -0.0006 -0.0961 -0.9954
vn -0.0041 -0.0550 -0.9985
vn -0.0009 -0.0557 -0.9984
vn -0.0007 -0.0557 -0.9984
vn -0.0382 -0.4466 -0.8939
vn -0.0382 -0.4467 -0.8939
vn 0.0168 -0.4539 -0.8909
vn -0.0000 -0.0968 -0.9953
vn -0.0000 -0.0964 -0.9953
vn 0.0000 -0.0565 -0.9984
vn -0.0000 -0.0563 -0.9984
vn 0.0168 -0.4539 0.8909
vn 0.0000 -0.0968 0.9953
vn -0.0000 -0.0964 0.9953
vn 0.0000 -0.0565 0.9984
vn -0.0007 -0.0557 0.9984
vn 0.0007 -0.0959 0.9954
vn 0.0032 -0.0957 0.9954
vn 0.0041 -0.0550 0.9985
vn 0.0009 -0.0557 0.9984
vn 0.0007 -0.0557 0.9984
vn 0.0382 -0.4466 0.8939
vn 0.0382 -0.4467 0.8939
vn 0.0007 -0.0959 -0.9954
vn 0.0032 -0.0957 -0.9954
vn 0.0006 -0.0961 -0.9954
vn 0.0041 -0.0550 -0.9985
vn 0.0009 -0.0557 -0.9984
vn 0.0040 -0.0551 -0.9985
vn 0.0382 -0.4467 -0.8939
vn 0.0382 -0.4466 -0.8939
vn -0.0168 -0.4539 -0.8909
vn 0.0007 -0.0557 -0.9984
vn -0.0168 -0.4539 0.8909
vn 0.0006 -0.0961 0.9954
vn 0.0000 -0.0563 0.9984
vn -1.0000 0.0000 0.0000
vn 1.0000 0.0000 0.0000
vn 0.0000 -1.0000 -0.0000
vn -0.0006 -0.0961 0.9954
vn -0.0033 -0.0956 -0.9954
vn 0.0040 -0.0551 0.9985
vn 0.0000 0.9991 -0.0420
vn 0.0000 0.9809 -0.1945
vn 0.0000 0.9991 0.0420
vn 0.0000 0.9809 0.1945
vn 0.0052 0.6201 0.7845
vn 0.0010 0.6187 0.7857
vn 0.0000 0.8760 0.4824
vn -0.0546 -0.6387 0.7675
vn -0.0546 -0.6387 -0.7675
vn 0.0010 0.6187 -0.7857
vn 0.0052 0.6201 -0.7845
vn 0.0000 0.8760 -0.4824
vn 0.0117 0.2779 -0.9605
vn 0.0118 0.2779 -0.9605
vn -0.0023 -0.1043 -0.9945
vn -0.0077 -0.1062 -0.9943
vn 0.0117 0.2779 0.9605
vn 0.0118 0.2779 0.9605
vn -0.0077 -0.1062 0.9943
vn -0.0023 -0.1043 0.9945
vn -0.0077 -0.1061 0.9943
vn 0.0000 0.2717 0.9624
vn -0.0070 0.2717 0.9624
vn -0.0000 -0.1024 0.9947
vn -0.0000 -0.1023 0.9947
vn -0.0000 -0.1024 -0.9947
vn 0.0000 -0.1023 -0.9947
vn -0.0000 0.2717 -0.9624
vn -0.0070 0.2717 -0.9624
vn -0.0000 0.6173 -0.7868
vn -0.0000 0.6172 -0.7868
vn 0.0233 -0.6275 -0.7783
vn 0.0233 -0.6275 0.7783
vn 0.0000 0.6173 0.7868
vn -0.0000 0.6172 0.7868
vn -0.0010 0.6187 0.7856
vn -0.0052 0.6201 0.7845
vn 0.0546 -0.6387 0.7675
vn 0.0546 -0.6387 -0.7675
vn -0.0052 0.6201 -0.7845
vn -0.0010 0.6187 -0.7857
vn -0.0117 0.2779 -0.9605
vn -0.0118 0.2779 -0.9605
vn 0.0077 -0.1062 -0.9943
vn 0.0023 -0.1043 -0.9945
vn 0.0077 -0.1061 -0.9943
vn -0.0117 0.2779 0.9605
vn -0.0118 0.2779 0.9605
vn 0.0019 -0.1043 0.9945
vn 0.0077 -0.1062 0.9943
vn 0.0070 0.2717 0.9624
vn 0.0070 0.2717 -0.9624
vn -0.0233 -0.6275 -0.7783
vn -0.0233 -0.6275 0.7783
vn -0.0078 -0.1051 -0.9944
vn -0.0078 -0.1051 0.9944
vn 0.0078 -0.1051 -0.9944
vn 0.0078 -0.1051 0.9944
usemtl LightBrown.004
s 1
f 2//1 4//2 1//3
f 1//4 5//5 6//4
f 6//6 8//7 7//6
f 10//8 12//9 9//10
f 11//11 14//12 12//13
f 16//14 13//15 15//15
f 18//16 16//16 17//16
f 20//17 12//9 19//18
f 19//19 14//12 18//20
f 8//21 22//21 21//21
f 4//2 23//22 24//23
f 24//24 5//5 4//25
f 26//26 28//27 25//27
f 25//28 30//29 26//30
f 32//31 29//32 31//32
f 34//33 36//34 33//35
f 35//36 37//37 38//38
f 38//39 40//40 39//39
f 40//41 18//41 17//41
f 34//33 20//17 19//18
f 19//19 37//37 34//42
f 22//43 32//43 21//43
f 26//26 23//22 27//44
f 24//24 30//29 22//45
f 11//46 2//46 1//46
f 28//47 35//47 25//47
f 27//48 23//48 20//48
f 1//46 13//46 11//46
f 13//46 7//46 15//46
f 29//47 39//47 31//47
f 38//47 25//47 35//47
f 2//1 3//49 4//2
f 1//4 4//25 5//5
f 6//6 5//6 8//7
f 10//8 11//50 12//9
f 11//11 13//11 14//12
f 16//14 14//15 13//15
f 18//16 14//16 16//16
f 20//17 9//10 12//9
f 19//19 12//13 14//12
f 8//21 5//21 22//21
f 4//2 3//49 23//22
f 24//24 22//45 5//5
f 26//26 27//44 28//27
f 25//28 29//51 30//29
f 32//31 30//32 29//32
f 34//33 35//34 36//34
f 35//36 34//42 37//37
f 38//39 37//39 40//40
f 40//41 37//41 18//41
f 34//33 33//35 20//17
f 19//19 18//20 37//37
f 22//43 30//43 32//43
f 26//26 24//23 23//22
f 24//24 26//30 30//29
f 11//46 10//46 2//46
f 28//47 36//47 35//47
f 23//48 3//48 20//48
f 3//48 2//48 9//48
f 20//48 3//48 9//48
f 2//48 10//48 9//48
f 20//48 33//48 27//48
f 33//48 36//48 28//48
f 28//48 27//48 33//48
f 1//46 6//46 13//46
f 13//46 6//46 7//46
f 29//47 38//47 39//47
f 38//47 29//47 25//47
usemtl Green.002
f 41//52 43//52 44//52
f 44//53 46//53 41//53
f 47//54 43//54 42//54
f 49//55 48//55 47//55
f 52//56 54//57 51//56
f 54//58 49//58 51//58
f 7//59 55//59 56//59
f 15//60 58//60 16//60
f 60//61 62//62 59//62
f 46//63 60//63 59//63
f 63//64 61//65 64//65
f 64//66 57//67 63//67
f 65//68 53//69 52//69
f 56//70 66//71 65//72
f 67//73 53//74 66//74
f 66//71 69//75 67//76
f 71//77 64//66 70//78
f 70//79 61//80 72//79
f 72//81 60//61 73//82
f 60//63 74//63 73//63
f 17//83 58//83 71//83
f 21//84 55//84 8//84
f 76//58 54//58 75//58
f 54//57 68//85 75//86
f 78//54 48//54 77//54
f 48//55 76//55 77//55
f 74//53 44//53 79//53
f 44//52 78//52 79//52
f 81//52 83//52 80//52
f 84//53 81//53 80//53
f 83//54 87//54 86//54
f 87//55 89//55 86//55
f 91//87 93//88 90//88
f 89//58 91//58 90//58
f 31//89 95//89 32//89
f 39//90 96//90 97//90
f 99//91 101//92 98//91
f 101//63 84//63 98//63
f 102//93 100//93 99//94
f 97//95 103//96 102//97
f 104//98 92//98 105//99
f 105//100 94//101 104//101
f 67//73 92//102 68//73
f 69//75 105//100 67//76
f 103//96 71//77 70//78
f 70//79 100//103 103//103
f 101//92 72//81 73//82
f 74//63 101//63 73//63
f 17//104 96//104 40//104
f 21//105 95//105 69//105
f 91//58 76//58 75//58
f 68//85 91//87 75//86
f 87//54 78//54 77//54
f 76//55 87//55 77//55
f 81//53 74//53 79//53
f 78//52 81//52 79//52
f 15//46 56//46 57//46
f 56//46 63//46 57//46
f 65//46 62//46 63//46
f 62//46 51//46 59//46
f 51//46 46//46 59//46
f 49//46 41//46 46//46
f 41//46 47//46 42//46
f 86//47 80//47 83//47
f 84//47 86//47 89//47
f 90//47 84//47 89//47
f 99//47 90//47 93//47
f 102//47 93//47 104//47
f 97//47 104//47 94//47
f 39//47 94//47 31//47
f 41//52 42//52 43//52
f 44//53 45//53 46//53
f 47//54 48//54 43//54
f 49//55 50//55 48//55
f 52//56 53//57 54//57
f 54//58 50//58 49//58
f 7//59 8//59 55//59
f 15//60 57//60 58//60
f 60//61 61//61 62//62
f 46//63 45//63 60//63
f 63//64 62//65 61//65
f 64//66 58//106 57//67
f 65//68 66//69 53//69
f 56//70 55//107 66//71
f 67//73 68//73 53//74
f 66//71 55//107 69//75
f 71//77 58//106 64//66
f 70//79 64//80 61//80
f 72//81 61//61 60//61
f 60//63 45//63 74//63
f 17//83 16//83 58//83
f 21//84 69//84 55//84
f 76//58 50//58 54//58
f 54//57 53//57 68//85
f 78//54 43//54 48//54
f 48//55 50//55 76//55
f 74//53 45//53 44//53
f 44//52 43//52 78//52
f 81//52 82//52 83//52
f 84//53 85//53 81//53
f 83//54 82//54 87//54
f 87//55 88//55 89//55
f 91//87 92//87 93//88
f 89//58 88//58 91//58
f 31//89 94//89 95//89
f 39//90 40//90 96//90
f 99//91 100//92 101//92
f 101//63 85//63 84//63
f 102//93 103//94 100//93
f 97//95 96//108 103//96
f 104//98 93//99 92//98
f 105//100 95//109 94//101
f 67//73 105//102 92//102
f 69//75 95//109 105//100
f 103//96 96//108 71//77
f 70//79 72//79 100//103
f 101//92 100//92 72//81
f 74//63 85//63 101//63
f 17//104 71//104 96//104
f 21//105 32//105 95//105
f 91//58 88//58 76//58
f 68//85 92//87 91//87
f 87//54 82//54 78//54
f 76//55 88//55 87//55
f 81//53 85//53 74//53
f 78//52 82//52 81//52
f 15//46 7//46 56//46
f 56//46 65//46 63//46
f 65//46 52//46 62//46
f 62//46 52//46 51//46
f 51//46 49//46 46//46
f 49//46 47//46 41//46
f 84//47 80//47 86//47
f 90//47 98//47 84//47
f 99//47 98//47 90//47
f 102//47 99//47 93//47
f 97//47 102//47 104//47
f 39//47 97//47 94//47
