# Blender v2.93.5 OBJ File: ''
# www.blender.org
mtllib SignLeft.mtl
o Sign_Left_Cube.011
v 0.368651 0.750425 0.154059
v 0.368651 0.750425 0.037679
v 0.380102 1.137324 0.037679
v 0.380102 1.137324 0.154059
v -0.253577 0.808405 0.037679
v -0.328850 0.771070 0.037679
v -0.317398 1.157969 0.037679
v -0.267222 1.156484 0.037679
v -0.330662 1.295274 0.037679
v -0.330662 1.295274 0.154059
v -0.317398 1.157969 0.154059
v 0.308642 0.752201 0.154059
v 0.331474 1.107655 0.154059
v -0.253577 0.808405 0.154059
v -0.328850 0.771070 0.154059
v 0.331474 1.107655 0.037679
v -0.350212 0.634789 0.037679
v -0.371260 0.633081 0.037679
v -0.351710 1.293565 0.037679
v -0.350212 0.634789 0.154059
v -0.351710 1.293565 0.154059
v -0.371260 0.633081 0.154059
v -0.106657 0.491898 0.096786
v -0.106657 1.254833 0.096786
v -0.106657 1.254833 -0.120539
v -0.106657 0.491898 -0.120539
v 0.108787 1.254833 -0.120539
v 0.083857 0.581353 -0.120539
v 0.108787 1.254833 0.096786
v 0.083857 0.581353 0.096786
v -0.106657 -0.004746 -0.120539
v 0.108787 -0.004746 -0.120539
v 0.108787 -0.004746 0.096786
v -0.106657 -0.004746 0.096786
v 0.108787 0.238890 0.096786
v 0.108787 0.441430 0.096786
v -0.106657 0.441430 0.096786
v -0.106657 0.238890 0.096786
v 0.108787 0.466664 0.096786
v -0.090525 0.466664 0.096786
v 0.108787 0.238890 -0.120539
v 0.108787 0.441430 -0.120539
v 0.108787 0.466664 -0.120539
v -0.106657 0.238890 -0.120539
v -0.106657 0.441430 -0.120539
v -0.090525 0.466664 -0.120539
v -0.086126 0.218342 0.096786
v -0.086126 0.218342 -0.120539
v 0.108787 0.218342 -0.120539
v 0.108787 0.218342 0.096786
v -0.267222 1.156484 0.154059
v -0.195050 0.772356 0.037679
v -0.195050 0.772355 0.154059
v -0.230956 1.155410 0.037679
v 0.285074 0.752898 0.037679
v 0.296526 1.139797 0.037679
v 0.285074 0.752898 0.154059
v -0.230956 1.155410 0.154059
v 0.308642 0.752201 0.037679
v 0.296526 1.139797 0.154059
v -0.720518 0.973950 0.154059
v -0.720518 0.973950 0.037679
vn 0.9996 -0.0296 0.0000
vn 0.0000 0.0000 -1.0000
vn 0.9954 0.0962 0.0000
vn 0.0000 -0.0000 1.0000
vn 0.4443 -0.8959 0.0000
vn -0.5208 0.8537 0.0000
vn 0.9879 -0.1549 0.0000
vn -0.0809 0.9967 0.0000
vn 0.0809 -0.9967 0.0000
vn -1.0000 -0.0000 0.0000
vn 0.9993 -0.0370 0.0000
vn 0.0000 -1.0000 -0.0000
vn 0.0000 1.0000 0.0000
vn 1.0000 0.0000 0.0000
vn 0.9772 0.2124 0.0000
vn -0.8425 0.5386 0.0000
vn -0.8425 -0.5386 -0.0000
vn -0.9958 0.0916 0.0000
vn -0.7074 -0.7068 -0.0000
vn 0.0296 0.9996 0.0000
vn -0.5244 -0.8514 -0.0000
vn -0.0350 -0.9994 -0.0000
vn -0.0405 -0.9992 -0.0000
vn -0.0296 -0.9996 0.0000
vn 0.6769 0.7360 0.0000
vn -0.6985 -0.7156 0.0000
vn -0.6549 0.7557 0.0000
usemtl Brown.002
s 1
f 2//1 4//1 1//1
f 5//2 7//2 8//2
f 9//3 11//3 7//3
f 1//4 13//4 12//4
f 14//5 6//5 5//5
f 13//6 3//6 16//6
f 17//2 19//2 9//2
f 6//2 9//2 7//2
f 10//4 15//4 11//4
f 20//7 6//7 15//7
f 19//8 10//8 9//8
f 22//9 17//9 20//9
f 21//4 20//4 10//4
f 24//10 26//10 23//10
f 25//2 28//2 26//2
f 27//11 30//11 28//11
f 30//4 24//4 23//4
f 32//12 34//12 31//12
f 25//13 29//13 27//13
f 36//4 38//4 35//4
f 36//4 40//4 37//4
f 30//4 40//4 39//4
f 42//14 35//14 41//14
f 43//14 36//14 42//14
f 28//15 39//15 43//15
f 45//2 41//2 44//2
f 46//2 42//2 45//2
f 46//2 28//2 43//2
f 37//10 44//10 38//10
f 40//16 45//16 37//16
f 23//17 46//17 40//17
f 47//18 31//18 34//18
f 48//2 32//2 31//2
f 49//14 33//14 32//14
f 33//4 47//4 34//4
f 38//19 48//19 47//19
f 48//2 41//2 49//2
f 41//14 50//14 49//14
f 35//4 47//4 50//4
f 11//20 8//20 7//20
f 52//21 14//21 5//21
f 14//4 11//4 15//4
f 5//2 54//2 52//2
f 52//2 56//2 55//2
f 55//22 53//23 52//23
f 51//20 54//20 8//20
f 14//4 58//4 51//4
f 1//24 59//24 2//24
f 2//2 16//2 3//2
f 60//25 16//25 56//25
f 57//4 13//4 60//4
f 53//4 60//4 58//4
f 58//20 56//20 54//20
f 12//24 55//22 59//24
f 55//2 16//2 59//2
f 21//4 61//4 22//4
f 61//26 18//26 22//26
f 62//27 21//27 19//27
f 18//2 62//2 19//2
f 2//1 3//1 4//1
f 5//2 6//2 7//2
f 9//3 10//3 11//3
f 1//4 4//4 13//4
f 14//5 15//5 6//5
f 13//6 4//6 3//6
f 17//2 18//2 19//2
f 6//2 17//2 9//2
f 10//4 20//4 15//4
f 20//7 17//7 6//7
f 19//8 21//8 10//8
f 22//9 18//9 17//9
f 21//4 22//4 20//4
f 24//10 25//10 26//10
f 25//2 27//2 28//2
f 27//11 29//11 30//11
f 30//4 29//4 24//4
f 32//12 33//12 34//12
f 25//13 24//13 29//13
f 36//4 37//4 38//4
f 36//4 39//4 40//4
f 30//4 23//4 40//4
f 42//14 36//14 35//14
f 43//14 39//14 36//14
f 28//15 30//15 39//15
f 45//2 42//2 41//2
f 46//2 43//2 42//2
f 46//2 26//2 28//2
f 37//10 45//10 44//10
f 40//16 46//16 45//16
f 23//17 26//17 46//17
f 47//18 48//18 31//18
f 48//2 49//2 32//2
f 49//14 50//14 33//14
f 33//4 50//4 47//4
f 38//19 44//19 48//19
f 48//2 44//2 41//2
f 41//14 35//14 50//14
f 35//4 38//4 47//4
f 11//20 51//20 8//20
f 52//21 53//21 14//21
f 14//4 51//4 11//4
f 5//2 8//2 54//2
f 52//2 54//2 56//2
f 55//22 57//22 53//23
f 51//20 58//20 54//20
f 14//4 53//4 58//4
f 1//24 12//24 59//24
f 2//2 59//2 16//2
f 60//25 13//25 16//25
f 57//4 12//4 13//4
f 53//4 57//4 60//4
f 58//20 60//20 56//20
f 12//24 57//22 55//22
f 55//2 56//2 16//2
f 61//26 62//26 18//26
f 62//27 61//27 21//27
